<svg version="1.1" id="Layer_1" xmlns="http://www.w3.org/2000/svg" xmlns:xlink="http://www.w3.org/1999/xlink" x="0px" y="0px"
	 width="100%" viewBox="0 0 541 346" enable-background="new 0 0 541 346" xml:space="preserve">
<path fill="#401285" opacity="1.000000" stroke="none" 
	d="
M336.269592,346.728210 
	C299.645782,347.000000 263.291534,347.000000 226.468658,347.000000 
	C223.560699,344.866455 220.560822,345.378601 217.702927,345.259918 
	C205.557419,344.755615 193.599625,342.049713 181.373505,342.303772 
	C177.732620,342.379425 174.911652,340.042084 172.367462,337.479553 
	C160.252319,325.276855 149.659195,311.782410 139.390915,298.062225 
	C122.001930,274.827606 106.851448,250.143921 93.782394,224.241562 
	C68.447044,174.027847 52.064251,121.006149 44.161461,65.298958 
	C41.797092,48.632381 41.162834,31.854700 39.610489,15.139934 
	C38.603764,4.300136 40.218395,2.869048 51.179180,2.534858 
	C53.926373,2.451097 56.740017,2.477589 59.702003,1.262052 
	C77.020897,1.000000 94.041786,1.000000 111.531342,1.000000 
	C112.883102,2.076612 114.143257,2.737124 113.798584,4.672195 
	C111.368507,18.315466 113.970650,31.816483 115.136765,45.361614 
	C116.490181,61.082294 120.254807,76.535423 119.663498,92.500977 
	C119.417206,99.150551 117.563271,105.277107 116.037224,111.536980 
	C114.373009,118.363579 113.461327,125.271149 112.737183,132.221603 
	C112.073296,138.593704 112.474281,144.834167 115.146240,150.817535 
	C119.819016,161.281326 120.420784,172.091354 118.085281,183.264282 
	C117.497673,186.075348 117.578789,189.126770 117.445572,192.068909 
	C117.366653,193.811676 118.033943,195.400833 120.096046,196.433960 
	C121.187157,203.269913 119.891174,209.752869 121.194519,216.237381 
	C122.238968,221.433792 125.070389,223.865005 130.293091,225.008789 
	C135.713715,226.049927 140.739517,225.132736 146.183304,225.579865 
	C147.848801,224.662796 149.151611,226.422974 150.757019,225.389984 
	C157.573547,232.297653 165.195374,236.894836 174.444672,238.962524 
	C179.979294,240.199783 184.344254,243.246857 186.969223,248.709183 
	C189.074158,253.089355 192.865875,255.868912 197.724274,256.898041 
	C201.815277,257.764557 204.786346,260.117767 207.603180,263.160065 
	C220.699432,277.304596 232.739822,292.419617 246.794159,305.685486 
	C256.951660,315.273132 267.698975,324.194244 278.048126,333.566040 
	C283.056213,338.101166 289.710846,337.929382 295.992523,338.459656 
	C307.568115,339.436859 319.106750,340.800110 330.685303,341.751770 
	C332.319885,341.886108 333.970093,342.305481 335.544159,342.844360 
	C337.570282,343.538116 338.316650,344.672180 336.269592,346.728210 
z"/>
<path fill="#5D2A99" opacity="1.000000" stroke="none" 
	d="
M342.705811,1.264688 
	C364.354218,1.000000 385.708466,1.000000 407.531342,1.000000 
	C410.085205,2.776578 410.105835,4.307223 407.397949,5.387904 
	C402.717377,7.255830 401.892487,10.699967 402.234619,15.454404 
	C402.892456,24.595863 403.905823,33.656441 405.230164,42.727856 
	C406.163361,49.119717 408.453339,54.570946 412.621948,59.307819 
	C416.433624,63.639160 419.210754,68.417290 420.442322,74.129143 
	C421.960144,81.168694 425.588074,86.956703 430.903656,91.905151 
	C437.239380,97.803291 443.376343,103.938202 449.277924,110.272560 
	C455.453796,116.901337 462.716064,121.632446 471.300110,124.417450 
	C474.795746,125.551598 478.493317,126.617989 481.274414,128.928833 
	C488.657043,135.063065 497.559448,136.115158 506.477997,137.264603 
	C513.080566,138.115585 519.693420,138.810318 526.221741,140.217575 
	C532.312134,141.530441 534.196106,140.092392 535.574524,133.795197 
	C536.680603,128.742477 537.454895,123.664688 537.635315,118.470467 
	C537.703003,116.522713 537.468018,112.984184 541.725830,115.728180 
	C542.000000,133.354233 542.000000,150.708450 542.000000,168.531342 
	C540.324158,171.605133 540.861023,174.517365 540.733398,177.371521 
	C540.475647,183.137146 539.987488,188.892883 539.458801,194.640594 
	C538.942749,200.250900 536.732056,202.372696 531.220032,202.462906 
	C520.656677,202.635803 510.192078,201.248505 500.184418,198.134705 
	C486.381805,193.840118 472.118500,190.835495 459.021698,184.417694 
	C454.725769,182.312576 451.309509,183.355209 447.596985,186.259277 
	C442.445831,190.288635 437.239197,194.392731 430.724915,196.668015 
	C428.227112,193.118484 428.504547,188.359436 431.439240,186.013809 
	C434.786224,183.338638 437.398010,181.078476 432.181732,177.678207 
	C431.229187,177.057312 430.906128,175.418167 430.185547,173.846893 
	C426.761566,161.906647 418.240540,157.427399 406.682434,156.445038 
	C402.541504,156.772949 400.196228,153.250687 396.610809,153.022690 
	C395.533264,152.954178 394.191620,152.277573 393.240906,152.516403 
	C381.886505,155.368912 370.570374,151.510193 359.242493,152.444168 
	C357.388275,152.597046 355.617310,152.054352 353.532043,151.092697 
	C350.744843,143.285355 351.696594,141.519791 359.238464,139.572800 
	C367.336029,137.482361 368.651398,135.280518 366.418304,127.093452 
	C364.018372,118.294823 363.617462,108.644035 358.056396,101.106735 
	C349.248901,89.169350 345.094177,75.447556 340.841217,61.613178 
	C338.304474,53.361420 335.647369,45.139977 332.702240,36.995914 
	C329.150574,27.174494 330.419464,16.607727 330.694916,6.303879 
	C330.767548,3.587865 332.827545,2.608025 335.041595,2.465486 
	C337.531067,2.305214 340.026123,2.437162 342.705811,1.264688 
z"/>
<path fill="#4B1C8D" opacity="1.000000" stroke="none" 
	d="
M186.704346,1.272083 
	C199.020889,1.000000 211.041794,1.000000 223.531342,1.000000 
	C226.067474,2.749107 225.871292,4.028491 223.493561,5.483099 
	C214.186615,11.176710 214.661102,11.180331 215.973206,22.416622 
	C217.304993,33.821404 218.147125,45.251099 220.413651,56.560738 
	C224.681320,77.855919 230.220093,98.734940 238.733582,118.759979 
	C239.712906,121.063507 240.128708,123.625626 241.325928,125.785194 
	C244.853729,132.148849 242.633331,137.005875 238.116898,141.844360 
	C232.760452,147.582733 228.944809,154.607605 223.231400,160.114548 
	C221.106216,162.162949 221.357544,165.037872 222.115204,168.091980 
	C222.722870,169.859161 222.457962,171.345383 222.546875,172.808624 
	C223.303391,185.259857 229.609985,193.600357 241.505951,198.281281 
	C242.499313,203.743195 247.330063,204.513428 250.657639,204.876404 
	C264.364136,206.371613 276.577972,212.463028 289.518799,216.260208 
	C303.791016,220.448059 312.489563,231.736191 322.856201,240.865158 
	C351.561584,266.143402 383.046509,286.946777 418.445709,301.661682 
	C435.228973,308.638214 452.471893,314.288696 470.120575,318.481628 
	C488.583496,322.868011 507.402191,325.371826 526.315308,326.997803 
	C531.157104,327.414062 533.617554,325.513397 535.171570,320.737549 
	C536.680115,316.101318 536.158752,311.127258 537.570312,306.480438 
	C538.161133,304.535431 538.614319,302.214233 541.717346,304.719788 
	C542.000000,316.687561 542.000000,328.375122 542.000000,340.531342 
	C540.295166,345.123901 536.623901,345.735138 532.901001,345.729279 
	C510.672089,345.694214 488.433655,345.665161 466.221741,344.984009 
	C451.059021,344.518982 435.863983,344.112335 420.734070,342.738159 
	C411.249512,341.876709 402.749908,337.845276 394.306061,333.956970 
	C363.593903,319.814484 334.881775,302.413147 308.997223,280.536774 
	C294.212677,268.041565 280.546844,254.379654 267.665833,239.962173 
	C262.811554,234.528809 257.554443,230.446869 250.149078,229.447861 
	C243.360977,228.532104 237.986115,224.977264 233.924911,219.578735 
	C230.963135,215.641678 227.286835,213.147812 222.416000,212.319733 
	C219.629211,211.845978 217.073349,210.657990 214.293396,209.017792 
	C213.121674,208.166138 213.424789,207.014008 213.373871,206.403351 
	C212.883972,200.528915 212.974609,200.521362 206.745514,200.355179 
	C202.471405,193.884186 198.748917,187.494873 195.228043,180.993851 
	C193.681030,178.137436 191.644409,175.289093 193.565216,171.438004 
	C195.776932,169.715790 197.226669,171.679169 199.307022,171.903015 
	C203.211182,172.685501 205.028900,170.375015 205.292679,167.666245 
	C205.531815,165.210587 204.469025,162.448441 200.487503,162.696564 
	C195.687149,162.116577 195.936218,167.005432 192.943451,168.678940 
	C189.349106,169.535202 188.294403,167.034622 187.224686,164.920837 
	C185.741730,161.990509 184.659805,158.859131 182.673233,155.711075 
	C182.408356,154.537689 182.324081,153.726807 182.087204,152.543427 
	C178.469452,146.245209 176.645264,139.596954 173.993362,133.305054 
	C172.954895,130.841187 171.355942,127.826775 174.189850,125.606674 
	C176.833817,123.535378 180.018906,124.347435 182.717285,125.758583 
	C183.556351,126.197380 183.938629,126.308945 184.909729,125.703796 
	C186.695663,121.592247 183.892227,118.598282 182.890671,115.330742 
	C181.311539,110.178825 181.455368,108.811981 185.996811,106.225929 
	C192.830933,102.334335 193.759277,100.778984 191.583557,92.947571 
	C186.719055,75.438034 183.366852,57.655434 181.029938,39.655849 
	C179.701843,29.426592 179.832184,19.090879 178.678986,8.849827 
	C178.361816,6.033216 179.624069,4.019740 182.347839,3.253101 
	C183.800125,2.844339 185.167130,2.383906 186.704346,1.272083 
z"/>
<path fill="#47188A" opacity="1.000000" stroke="none" 
	d="
M214.245972,208.263336 
	C217.104904,208.508682 219.697510,209.215683 222.335770,209.501801 
	C228.361618,210.155334 232.847076,212.846451 236.179138,218.065735 
	C239.372086,223.067093 244.358139,225.990097 250.247452,226.674957 
	C258.592926,227.645477 264.381012,232.111588 269.792480,238.298019 
	C300.152710,273.006012 335.604156,301.349243 376.761505,322.355927 
	C386.400940,327.275848 396.033142,332.204712 406.158447,336.135162 
	C413.081299,338.822479 420.167816,340.620697 427.521393,340.839050 
	C461.289185,341.841522 494.987549,345.011383 528.821472,344.055908 
	C533.240662,343.931152 537.439331,343.483795 541.660400,341.133362 
	C543.113037,346.091888 541.172424,347.165009 536.024353,347.147644 
	C469.662567,346.924377 403.299835,347.000000 336.468658,347.000000 
	C329.866730,342.604523 322.595001,343.896606 315.779053,343.062408 
	C305.713684,341.830475 295.600464,340.994171 285.519806,339.879120 
	C282.156982,339.507141 279.044830,338.310089 276.514313,335.924561 
	C263.070709,323.251221 248.417160,311.875549 235.832886,298.287567 
	C225.428802,287.053650 215.205566,275.651642 204.954880,264.276642 
	C202.748688,261.828461 200.200256,259.958801 196.942719,259.578705 
	C191.384750,258.930237 187.394730,255.515839 185.275055,251.090729 
	C181.847626,243.935547 175.787476,241.881516 169.058060,240.063980 
	C161.654068,238.064270 155.047943,234.721191 151.126541,227.175720 
	C151.499008,224.858017 153.431610,224.587326 155.195435,223.630615 
	C159.801666,224.139572 163.758621,228.117981 168.648651,224.442627 
	C173.019852,222.977524 177.069214,223.143341 180.851776,224.920517 
	C184.802429,226.776642 188.063492,224.792603 191.924866,223.644897 
	C193.820267,224.005981 195.147797,224.781921 196.530914,225.413910 
	C200.372406,227.169189 202.762497,226.181976 203.341003,222.067581 
	C203.727234,219.320587 204.756454,218.479736 207.492767,218.461288 
	C213.066757,218.423737 212.898026,218.237183 213.388031,212.544617 
	C213.497452,211.273193 212.857239,209.700989 214.245972,208.263336 
z"/>
<path fill="#501F90" opacity="1.000000" stroke="none" 
	d="
M542.000000,304.531342 
	C539.933594,306.796753 539.609009,309.309235 539.270447,311.788910 
	C538.977661,313.933228 538.913147,316.112335 538.553284,318.243195 
	C536.722534,329.082581 534.396912,330.591522 523.458008,329.470520 
	C506.222412,327.704315 489.013397,325.627014 472.152740,321.684967 
	C456.122803,317.937134 440.406158,313.069061 425.002014,307.053375 
	C408.654358,300.669250 392.817535,293.347076 377.818420,284.321686 
	C361.852905,274.714783 346.411804,264.391510 332.261597,252.072006 
	C322.469849,243.547073 312.932770,234.772873 303.244781,226.155792 
	C297.822449,221.332825 290.263947,219.539719 283.443359,216.969208 
	C279.245605,215.387177 274.945190,214.065506 270.872040,212.150223 
	C264.775726,209.283600 258.354675,207.713806 251.669342,206.975616 
	C247.051682,206.465729 242.981079,204.710266 240.156982,200.301941 
	C240.289154,197.056976 242.306641,197.775345 244.002472,198.231339 
	C248.820724,199.526901 253.800186,200.125778 258.571259,201.589676 
	C264.493683,203.406830 270.505615,204.584671 276.722717,204.507141 
	C279.072052,204.477844 281.438263,204.729889 283.634857,205.380890 
	C298.508881,209.788986 314.112518,207.342545 329.128326,210.364746 
	C338.744415,212.300140 348.371613,214.175323 357.953491,216.279434 
	C362.932190,217.372726 366.676605,220.657562 370.817169,223.249039 
	C372.789093,224.483200 374.733978,225.856567 377.329834,223.467712 
	C386.569489,229.328262 396.258850,233.687408 405.739136,238.470978 
	C410.475922,240.861053 415.153992,242.566666 420.464752,242.495911 
	C423.123871,242.460495 425.766937,242.683426 428.425446,242.971619 
	C435.085999,243.693665 440.391602,245.837723 443.509583,252.536621 
	C446.019836,257.929962 451.586761,258.460358 456.900299,258.449005 
	C470.449890,258.420044 483.761322,260.365509 497.022766,262.931702 
	C501.140930,263.728577 504.569122,265.182983 506.918182,268.893738 
	C508.603668,271.556244 511.270020,272.966125 514.442200,273.254456 
	C519.426392,273.707489 524.430664,273.580566 529.419556,273.515656 
	C533.312622,273.464996 534.762085,270.664154 535.305298,267.237152 
	C536.034668,262.635712 536.409546,257.971954 537.602051,253.452667 
	C538.115051,251.508499 538.637329,249.257477 541.708130,251.710663 
	C542.000000,269.354218 542.000000,286.708466 542.000000,304.531342 
z"/>
<path fill="#632F9D" opacity="1.000000" stroke="none" 
	d="
M542.000000,115.531342 
	C540.238037,117.622688 540.035461,119.768433 540.008850,121.967712 
	C539.939819,127.673576 538.383484,133.154663 537.468079,138.731705 
	C536.850952,142.490982 534.492310,144.530609 530.786865,143.748886 
	C517.577820,140.962280 504.093445,139.999344 490.852753,137.471558 
	C490.047058,137.317749 489.150391,137.094208 488.528503,136.606628 
	C480.129089,130.021774 469.956879,127.037666 460.467255,122.663811 
	C457.275543,121.192719 454.516754,119.026642 452.023773,116.525810 
	C443.209198,107.683510 434.489471,98.741699 425.493927,90.086891 
	C421.013702,85.776337 419.281555,80.298096 417.830627,74.672935 
	C416.507294,69.542564 414.284180,65.024292 410.706573,61.142708 
	C405.932587,55.963085 403.557190,49.923042 402.447235,42.865112 
	C400.839752,32.643196 400.329010,22.350374 399.171722,12.107903 
	C398.712555,8.044218 399.817841,4.896977 404.223419,3.593230 
	C405.435150,3.234656 406.455658,2.230027 407.781952,1.260921 
	C426.687561,1.000000 445.375122,1.000000 464.531342,1.000000 
	C467.029968,2.777831 467.220551,4.425779 464.336456,5.276915 
	C459.582275,6.679953 458.498322,10.195477 458.517609,14.533061 
	C458.533142,18.023235 458.476410,21.513485 458.567017,25.003700 
	C458.751923,32.123753 461.399292,37.964584 466.296631,43.322887 
	C476.398499,54.375565 487.094177,64.779915 497.988464,75.030426 
	C503.268097,79.998085 508.932007,82.915756 516.253662,82.526039 
	C520.232117,82.314278 524.237000,82.678535 528.215332,82.367867 
	C533.002014,81.994080 534.502075,80.391449 535.434753,75.692245 
	C536.503723,70.306610 535.929565,64.720657 537.515503,59.416447 
	C538.107544,57.436356 538.686584,55.193996 541.724182,57.726505 
	C542.000000,77.020897 542.000000,96.041786 542.000000,115.531342 
z"/>
<path fill="#38097E" opacity="1.000000" stroke="none" 
	d="
M1.265825,128.307953 
	C1.000000,87.650406 1.122158,47.299988 0.848549,6.952252 
	C0.813544,1.790357 1.941324,-0.104975 7.502095,1.000000 
	C9.156078,2.143168 10.090990,3.189482 10.047965,5.141671 
	C9.405523,34.291748 10.443230,63.318943 15.845806,92.090851 
	C22.315983,126.548355 31.576204,160.139954 44.453655,192.808884 
	C57.264713,225.309341 73.195557,256.155273 91.569138,285.772583 
	C101.490654,301.765594 113.059509,316.636200 124.264816,331.742188 
	C127.872841,336.606201 133.186310,339.093201 138.317566,341.876892 
	C139.929947,342.751587 143.105331,343.319336 140.280624,346.717041 
	C129.979111,347.000000 119.958214,347.000000 109.468658,347.000000 
	C103.416878,344.353851 97.312988,345.268616 91.478653,344.772736 
	C84.008644,344.137817 78.920639,340.861847 74.652359,334.851746 
	C48.492867,298.017059 26.709202,258.802338 9.442677,217.044937 
	C5.851155,208.359192 5.330525,199.304214 4.466182,190.191025 
	C2.674975,171.305450 3.422730,152.328583 2.252329,133.422455 
	C2.149988,131.769272 1.803195,130.212296 1.265825,128.307953 
z"/>
<path fill="#562495" opacity="1.000000" stroke="none" 
	d="
M342.531342,1.000000 
	C342.059967,2.224771 340.890350,3.290184 339.363861,3.452098 
	C333.926758,4.028814 333.295898,7.518514 332.875366,12.199549 
	C331.612000,26.262716 336.413574,38.978901 340.590424,51.913055 
	C343.651611,61.392445 347.296570,70.699066 349.296021,80.507767 
	C349.870758,83.327248 351.275452,85.859657 353.073456,88.028679 
	C363.103638,100.128662 366.702606,114.788086 369.865356,129.638138 
	C369.934479,129.962662 369.959198,130.296402 370.019470,130.623093 
	C371.676514,139.602936 371.477142,139.958603 362.165222,141.843506 
	C358.315674,142.622726 354.397949,143.102280 354.032318,148.620453 
	C354.002747,151.843018 351.611938,152.076309 349.840424,152.249130 
	C337.820862,153.421753 326.446594,158.512680 313.736694,158.038773 
	C312.368713,157.331375 311.425537,156.686508 310.447479,156.090408 
	C307.302246,154.173538 306.855408,151.820877 309.361694,149.036453 
	C310.010162,148.316010 310.946716,147.797104 310.929260,146.224747 
	C310.997314,142.986908 309.479675,140.768448 308.196655,138.434448 
	C302.752502,128.530502 296.802216,118.832924 295.394012,107.260880 
	C295.149811,105.254021 294.505585,103.255676 293.007568,101.862823 
	C284.047607,93.531845 282.750519,82.114578 280.544250,71.086533 
	C279.198151,64.358009 279.609833,57.500645 279.408051,50.687401 
	C279.233276,44.786934 278.572479,39.010918 273.299255,35.013512 
	C271.585571,33.714447 271.294922,31.542379 271.037323,29.602194 
	C270.162781,23.015427 269.142822,16.423347 269.560364,9.741945 
	C269.848114,5.137103 271.385315,4.006784 276.290527,3.014081 
	C279.648743,2.334448 283.081940,2.392582 286.694458,1.264489 
	C305.354218,1.000000 323.708466,1.000000 342.531342,1.000000 
z"/>
<path fill="#3D0F82" opacity="1.000000" stroke="none" 
	d="
M59.531342,1.000000 
	C57.378025,3.984203 53.764069,3.778240 50.291275,4.008393 
	C43.615402,4.450823 41.779713,6.400214 42.107731,13.104027 
	C44.084705,53.508026 49.945000,93.298126 60.927650,132.286362 
	C73.884789,178.283997 93.010529,221.511353 118.264259,262.108917 
	C133.887543,287.224670 151.651474,310.647705 171.203796,332.792419 
	C175.884018,338.093140 181.296448,340.381012 188.352844,340.081665 
	C199.236313,339.619934 209.826538,342.610992 220.608353,343.539825 
	C222.617493,343.712891 224.507324,344.494843 225.821793,346.700195 
	C210.312439,347.000000 194.624878,347.000000 178.468658,347.000000 
	C172.285797,345.355225 166.471222,344.946838 160.530197,345.107605 
	C152.905853,345.313873 146.366348,343.383850 140.879288,337.132324 
	C127.344025,321.711334 114.239410,305.991760 103.526596,288.463287 
	C98.492851,280.226990 93.576065,271.931488 88.231071,263.885071 
	C85.474701,259.735626 83.218582,255.273361 81.933891,250.351181 
	C80.734787,245.756927 77.912674,241.965179 75.094368,238.233994 
	C70.831467,232.590286 67.393211,226.584518 66.052025,219.509781 
	C65.493141,216.561661 64.547951,213.634491 62.764130,211.186142 
	C54.275597,199.535355 50.489494,186.185089 48.430573,172.186401 
	C47.915134,168.681931 46.944885,165.275009 44.931107,162.369385 
	C37.462341,151.592911 34.716316,139.362091 33.548294,126.598724 
	C32.879726,119.293114 31.622215,112.069534 30.374079,104.846207 
	C29.975014,102.536697 29.636656,100.116821 28.360136,98.180054 
	C21.420820,87.651588 20.778940,75.359642 19.856365,63.591839 
	C18.427790,45.369839 17.352398,27.061424 17.487442,8.736115 
	C17.508364,5.897203 17.672523,3.217930 20.720528,1.278211 
	C33.687561,1.000000 46.375122,1.000000 59.531342,1.000000 
z"/>
<path fill="#552495" opacity="1.000000" stroke="none" 
	d="
M542.000000,251.531342 
	C538.167236,256.404968 538.937134,262.039154 538.166748,267.184418 
	C536.779785,276.448151 535.902466,277.251343 526.760864,276.379852 
	C522.302734,275.954865 517.794067,276.044312 513.307434,275.938812 
	C509.537170,275.850128 506.485077,274.557068 504.746582,270.991180 
	C503.131958,267.679321 500.296173,266.322052 496.830841,265.647064 
	C483.260651,263.003754 469.630005,260.954865 455.761169,260.996002 
	C448.476776,261.017609 442.187744,259.543182 439.583832,251.471954 
	C438.710724,248.765640 436.370880,247.322189 433.592712,246.714920 
	C433.105316,246.608398 432.618225,246.389969 432.133606,246.397293 
	C411.906769,246.703094 395.233063,237.095016 378.319458,227.124084 
	C372.712769,224.266739 367.307037,221.754852 363.919189,216.429504 
	C362.500061,214.198868 361.639679,212.101532 363.388000,209.317963 
	C371.769073,206.822968 379.721649,208.761917 387.592438,209.667038 
	C393.334259,210.327332 398.765289,211.036697 404.366943,207.712677 
	C409.492249,208.312378 414.113312,208.374786 418.679199,206.934479 
	C421.511017,206.041183 424.302216,206.828659 427.058960,207.465958 
	C431.485321,208.489227 435.520996,207.836731 439.556946,205.591965 
	C446.587646,201.681534 453.564819,200.931854 461.397552,204.622299 
	C472.834595,210.010941 485.056152,213.287323 497.506012,215.859207 
	C506.484344,217.713898 515.367981,219.575928 524.562134,220.073914 
	C531.752991,220.463379 534.845703,218.576096 536.013123,211.481384 
	C536.632935,207.714676 536.474854,203.801208 537.675537,200.156845 
	C538.140198,198.746399 538.897827,196.201950 541.708801,198.711273 
	C542.000000,216.354233 542.000000,233.708450 542.000000,251.531342 
z"/>
<path fill="#501F90" opacity="1.000000" stroke="none" 
	d="
M221.309921,169.296112 
	C218.962143,162.987946 219.958176,157.956940 225.345795,153.988861 
	C228.043060,152.002274 230.130768,149.343018 230.938431,145.924454 
	C231.471970,143.666214 233.088989,142.308105 234.792389,140.892380 
	C240.895889,135.819733 241.626389,133.945847 238.703934,126.737633 
	C229.039307,102.899765 221.676758,78.434883 216.918808,53.125351 
	C214.480148,40.153114 214.409042,26.954247 212.132721,13.991169 
	C211.262650,9.036317 213.188766,5.562960 218.551483,4.530465 
	C220.519836,4.151494 222.370071,3.309925 223.802429,1.278222 
	C235.687561,1.000000 247.375122,1.000000 259.531342,1.000000 
	C262.900238,3.351310 261.154114,5.442988 259.070648,6.423010 
	C253.301178,9.136841 252.904572,13.477622 253.281189,19.211269 
	C255.432281,51.959618 264.111145,83.038612 276.492065,113.220634 
	C278.256836,117.522697 280.633850,121.560883 282.601196,125.780678 
	C285.533966,132.071228 283.938538,135.366928 277.187256,136.373398 
	C273.409668,136.936554 270.174072,138.046295 267.563385,140.987671 
	C265.965485,142.787979 263.659393,143.503311 261.231110,143.461548 
	C254.817596,143.351242 249.302277,145.711990 243.956528,149.078812 
	C238.208481,152.698990 231.953781,155.316681 227.692444,161.216629 
	C225.670349,164.016281 225.739456,167.299149 223.483154,170.075378 
	C222.497604,170.269211 222.003128,170.045883 221.309921,169.296112 
z"/>
<path fill="#3A0B7F" opacity="1.000000" stroke="none" 
	d="
M20.536816,1.000000 
	C18.353958,15.954438 21.175869,30.885334 21.362713,45.821308 
	C21.514318,57.940681 22.803940,70.050446 25.123472,82.010880 
	C25.987799,86.467697 27.272314,90.637688 29.583216,94.615891 
	C34.425293,102.951477 34.550953,112.530861 35.606579,121.706619 
	C37.296856,136.398849 39.449646,150.751846 48.430325,163.152969 
	C50.292820,165.724823 50.725033,169.010956 51.189835,172.159378 
	C53.204861,185.808456 56.799122,198.859879 65.311356,210.107056 
	C66.931786,212.248123 67.866119,214.816116 68.323982,217.453049 
	C69.642242,225.045166 73.125282,231.553574 77.862488,237.520569 
	C81.409866,241.988861 84.191368,246.860046 85.508766,252.521942 
	C85.951813,254.426071 86.858658,256.319702 87.941368,257.962524 
	C98.908058,274.602448 108.337273,292.194092 120.300308,308.250732 
	C127.289581,317.631622 135.657715,325.738464 142.612686,335.055878 
	C147.458572,341.547791 154.263519,342.829926 161.629456,342.975098 
	C167.162384,343.084167 172.549118,343.794800 177.747620,346.755493 
	C165.645767,347.000000 153.291550,347.000000 140.468658,347.000000 
	C138.477768,344.351654 135.767639,343.296661 133.212875,342.143890 
	C128.694794,340.105225 124.977333,337.080353 121.993248,333.210938 
	C95.590111,298.974030 72.746712,262.588409 54.535809,223.279190 
	C36.528694,184.409851 23.351557,144.005295 14.897109,102.082451 
	C10.752589,81.531143 7.570774,60.793945 7.954070,39.680195 
	C8.117025,30.703794 6.545457,21.771238 6.960112,12.760045 
	C7.128604,9.098405 7.158742,5.441215 7.937200,1.415865 
	C12.024545,1.000000 16.049089,1.000000 20.536816,1.000000 
z"/>
<path fill="#36067C" opacity="1.000000" stroke="none" 
	d="
M1.000000,128.468658 
	C3.702837,130.315460 3.793229,133.545319 3.974579,136.704147 
	C5.184813,157.784576 5.864809,178.896591 7.960346,199.923828 
	C8.510895,205.448196 9.783619,210.714661 11.864306,215.856125 
	C25.022633,248.370865 41.541145,279.149048 60.127892,308.829926 
	C65.774933,317.847565 72.155479,326.405212 78.176704,335.189575 
	C80.668648,338.825073 83.988609,340.967560 88.417114,341.593475 
	C93.357986,342.291870 98.254395,343.299835 103.179726,344.115295 
	C105.183823,344.447113 107.121109,344.837982 108.769394,346.732269 
	C92.312439,347.000000 75.624878,347.000000 58.468658,347.000000 
	C51.407967,342.698486 43.699711,342.421997 36.333908,341.800720 
	C30.153049,341.279388 25.993793,338.967651 23.050568,333.743561 
	C20.927811,329.975739 18.504463,326.384827 16.164371,322.745300 
	C10.508718,313.949066 7.027218,304.824432 7.143779,293.824249 
	C7.279114,281.052338 6.199201,268.133392 2.784847,255.610580 
	C2.414397,254.251846 2.384834,252.810699 1.273768,251.297821 
	C1.000000,210.312439 1.000000,169.624878 1.000000,128.468658 
z"/>
<path fill="#6835A1" opacity="1.000000" stroke="none" 
	d="
M542.000000,57.531342 
	C539.592834,60.023338 539.342102,62.860668 539.082947,65.700150 
	C538.674805,70.171791 538.268738,74.643715 537.834473,79.112869 
	C537.472229,82.841606 535.435059,84.884491 531.647095,84.901169 
	C524.493530,84.932663 517.338135,84.964546 510.186432,84.834755 
	C506.184204,84.762123 502.819366,82.914520 499.902802,80.275291 
	C486.454193,68.105698 473.467529,55.473972 461.474487,41.846241 
	C458.761078,38.763031 457.007416,35.333702 456.515656,31.182613 
	C455.649994,23.874739 456.064056,16.559551 456.104553,9.245621 
	C456.122467,6.007637 457.737000,3.994118 460.935547,3.149828 
	C462.184448,2.820169 463.317902,2.053121 464.751953,1.242645 
	C481.020905,1.000000 497.041779,1.000000 513.531372,1.000000 
	C516.484802,3.154971 515.928589,4.497620 512.926331,5.366292 
	C505.212494,7.598172 504.422394,9.382541 508.206024,16.381111 
	C512.438049,24.209091 518.438904,30.318518 526.508362,34.179543 
	C532.400024,36.998554 535.201904,35.445206 535.388367,29.102461 
	C535.579956,22.587297 537.739258,16.344904 537.659607,9.794816 
	C537.633118,7.611076 538.299500,5.055753 541.745178,7.746698 
	C542.000000,24.354227 542.000000,40.708454 542.000000,57.531342 
z"/>
<path fill="#48198A" opacity="1.000000" stroke="none" 
	d="
M186.531342,1.000000 
	C180.006638,6.547740 181.601562,14.264044 182.116623,21.504095 
	C183.678726,43.462143 186.900116,65.172089 192.681641,86.456688 
	C193.684891,90.150177 194.331573,93.953445 195.530899,97.577629 
	C197.197769,102.614731 195.297974,105.407539 190.651291,107.278465 
	C183.880493,110.004623 184.047119,110.099136 185.993332,117.237602 
	C186.983215,120.868332 189.186905,124.301094 188.105255,128.667725 
	C184.360931,127.941833 181.799637,125.671928 180.279282,122.200066 
	C179.418213,120.233757 178.762909,118.154808 177.196045,116.566010 
	C173.527588,112.846184 170.083328,113.630249 168.432404,118.573990 
	C167.333664,121.864182 163.454941,123.668549 160.865494,121.350899 
	C156.683838,117.608177 153.113922,113.159767 150.444977,107.697006 
	C150.470444,98.537910 147.666718,90.276581 145.858246,81.869377 
	C140.887924,58.763660 137.969177,35.437664 137.529434,11.814052 
	C137.377594,3.657192 137.521469,3.635489 145.575363,2.155403 
	C146.228195,2.035430 146.698318,1.541181 147.679596,1.279210 
	C160.687561,1.000000 173.375122,1.000000 186.531342,1.000000 
z"/>
<path fill="#441688" opacity="1.000000" stroke="none" 
	d="
M147.531342,0.999999 
	C147.783310,1.251947 147.613876,1.644392 147.343094,1.735450 
	C138.948654,4.558215 139.679810,11.398326 140.081650,18.117136 
	C141.742691,45.889038 145.828735,73.282555 152.918289,100.202881 
	C153.580093,102.715874 153.828918,105.100235 152.174515,107.700401 
	C151.079926,110.116966 149.202728,111.145020 147.368774,112.329422 
	C142.238022,115.642952 138.346375,120.069778 135.694366,126.004166 
	C132.383011,127.373459 132.267593,129.617294 132.962708,132.287918 
	C133.695877,135.104828 134.156647,138.029251 134.412033,140.881668 
	C134.776108,144.948013 135.589020,148.885620 130.968185,152.319412 
	C127.517860,154.883392 127.745079,160.602158 126.394592,165.355194 
	C123.355476,176.136856 120.609535,186.561951 119.868378,197.713867 
	C116.918930,196.744919 116.107475,194.469406 116.094162,191.823135 
	C116.070724,187.167297 115.447693,182.382767 116.293961,177.881134 
	C118.181236,167.841843 115.431870,158.754089 111.801537,149.740082 
	C110.085449,145.479095 109.418648,141.174408 109.700203,136.587189 
	C110.437317,124.577721 112.771255,112.906555 115.893448,101.291389 
	C118.201874,92.703575 117.682739,83.700890 116.349693,75.013313 
	C113.446892,56.095509 111.336914,37.114563 110.081902,18.027451 
	C109.718826,12.505607 110.055069,7.058863 111.928497,1.386414 
	C123.687561,1.000000 135.375122,1.000000 147.531342,0.999999 
z"/>
<path fill="#512191" opacity="1.000000" stroke="none" 
	d="
M222.887344,169.414276 
	C223.756180,160.057556 229.947159,154.747421 236.601608,150.429733 
	C244.188446,145.507065 251.809784,139.892502 261.744141,140.707230 
	C261.902466,140.720215 262.122070,140.694305 262.223206,140.595016 
	C266.984894,135.920456 272.828125,133.884399 279.314819,132.726181 
	C281.964142,132.253143 281.315857,129.242950 280.250427,127.212952 
	C274.351685,115.974075 269.656006,104.224388 265.630188,92.219269 
	C258.245544,70.197998 252.905624,47.713120 251.014420,24.495476 
	C250.690018,20.512804 250.337799,16.532135 250.050217,12.546804 
	C249.794815,9.007146 250.843002,6.345826 254.738419,5.449662 
	C256.911560,4.949718 258.744537,3.800334 259.854248,1.313304 
	C268.687561,1.000000 277.375122,1.000000 286.531342,1.000000 
	C284.345551,3.725220 280.568054,3.522683 277.305298,4.608191 
	C273.796204,5.775651 271.880310,7.917685 272.107208,11.554005 
	C272.469696,17.363567 272.989136,23.168112 273.652039,28.950722 
	C273.813232,30.356937 274.414337,32.303905 275.455139,32.923107 
	C282.749146,37.262375 281.864624,44.533382 281.891663,51.153976 
	C281.948761,65.122551 283.504089,78.734642 288.898499,91.748558 
	C289.735199,93.767113 290.268311,96.116615 292.241364,97.163536 
	C296.810333,99.587898 298.007446,103.523376 298.472046,108.282555 
	C299.526001,119.079201 305.488495,127.921288 310.597565,137.058594 
	C312.064850,139.682693 314.043732,142.040466 313.083191,145.674042 
	C308.318359,150.349991 302.171082,151.323669 296.536743,150.794281 
	C285.693695,149.775543 274.928436,150.104797 264.142853,150.615814 
	C254.305771,151.081894 245.333832,154.740219 236.722015,159.254990 
	C233.511917,160.937866 231.471558,163.809235 230.034012,167.104263 
	C229.368210,168.630356 228.735550,170.172058 227.837540,171.587402 
	C227.066833,172.802124 225.887756,173.330124 224.576187,173.106155 
	C222.770767,172.797867 222.441803,171.435974 222.887344,169.414276 
z"/>
<path fill="#5A2798" opacity="1.000000" stroke="none" 
	d="
M542.000000,198.531342 
	C540.227966,200.519791 539.714417,202.622360 539.429260,204.783081 
	C539.168823,206.756714 539.080627,208.752426 538.880493,210.734772 
	C537.719177,222.236023 535.472717,223.390350 524.073425,222.848312 
	C512.859985,222.315063 502.011993,219.908951 491.266052,217.476089 
	C481.169617,215.190323 470.842590,212.663040 461.573486,207.735275 
	C453.782471,203.593323 446.679230,204.070465 439.568604,208.798813 
	C437.415894,210.230286 434.955261,211.439911 432.548279,210.808655 
	C424.264984,208.636169 416.102142,210.587555 407.446350,211.001389 
	C397.150482,211.073868 387.442749,209.526871 377.694458,208.447647 
	C376.313446,208.294769 374.742981,208.449020 374.435028,206.043884 
	C374.552673,203.415543 375.904541,202.756104 377.767365,202.633270 
	C379.928619,202.490753 382.074036,202.615677 384.235260,202.755722 
	C399.666107,203.755676 414.999969,204.108643 428.653687,194.954391 
	C429.108521,194.649445 429.610199,194.788116 430.549744,194.918396 
	C436.841705,189.362381 445.080688,186.816956 450.032196,179.908752 
	C451.915894,177.280685 454.619568,179.420700 456.808716,180.423676 
	C475.332794,188.910690 494.780640,194.446625 514.704651,198.373932 
	C519.409485,199.301331 524.259888,199.538361 529.056091,199.939865 
	C533.828979,200.339417 536.520996,198.255585 537.068909,193.263779 
	C537.665955,187.824799 539.061951,182.494400 539.188965,176.971695 
	C539.249451,174.340637 539.584839,171.636688 541.749207,169.252045 
	C542.000000,178.687561 542.000000,188.375122 542.000000,198.531342 
z"/>
<path fill="#320378" opacity="1.000000" stroke="none" 
	d="
M1.000000,251.468658 
	C5.231790,253.030746 5.682141,257.278473 6.615544,261.066406 
	C9.341328,272.128143 9.531081,283.508087 9.836775,294.785583 
	C10.045568,302.488281 11.028105,309.565491 15.427166,316.096832 
	C19.232441,321.746582 22.564390,327.716461 26.070627,333.565765 
	C28.114283,336.975128 31.011467,338.956024 35.044880,338.912292 
	C40.437050,338.853790 45.558262,340.525452 50.826519,341.250366 
	C53.990475,341.685699 56.388641,343.364502 57.862816,346.684021 
	C40.217808,347.000000 22.434267,346.887573 4.654615,347.100098 
	C1.319457,347.139954 0.925850,346.083344 0.935801,343.174713 
	C1.039850,312.762512 1.000000,282.349854 1.000000,251.468658 
z"/>
<path fill="#6D38A2" opacity="1.000000" stroke="none" 
	d="
M542.000000,7.600004 
	C538.613647,14.372494 538.905884,21.522251 538.210632,28.338831 
	C536.965759,40.544975 535.191223,41.878815 524.221069,36.036999 
	C514.435791,30.826168 507.562592,22.859337 503.485962,12.556186 
	C501.159119,6.675344 502.516876,4.382821 508.851654,3.134972 
	C510.488617,2.812524 512.171997,2.703826 513.738953,1.243544 
	C522.354248,1.000000 530.708496,1.000000 539.531372,1.000000 
	C540.927856,1.611104 540.909180,2.795416 541.779663,3.787351 
	C542.000000,5.066669 542.000000,6.133338 542.000000,7.600004 
z"/>
<path fill="#6835A1" opacity="1.000000" stroke="none" 
	d="
M542.000000,3.500002 
	C541.400757,3.193521 540.801514,2.387036 540.101135,1.290276 
	C541.732056,0.601308 542.398682,1.267974 542.000000,3.500002 
z"/>
<path fill="#1E93B8" opacity="1.000000" stroke="none" 
	d="
M156.317307,224.762543 
	C154.543732,225.460510 153.058395,225.975845 151.285248,226.670212 
	C149.907242,226.868378 148.817032,226.887497 147.322861,226.840149 
	C146.305267,226.198166 145.515289,225.743881 145.524246,224.328522 
	C147.211884,220.292786 150.143982,217.590485 152.534195,214.491776 
	C153.653824,213.040268 155.241989,211.773117 155.545013,209.960205 
	C157.275055,199.609741 156.424942,189.335037 154.110947,179.170639 
	C153.088409,174.679016 151.326752,170.333832 150.546158,165.817703 
	C149.328400,158.772263 146.367249,153.674683 138.639862,152.090302 
	C138.413086,151.000824 138.331558,150.266418 138.191589,149.198181 
	C138.292572,147.272934 138.517410,145.705017 138.500198,143.766174 
	C138.507645,142.910324 138.517593,142.411194 138.571747,141.511459 
	C141.498779,138.569046 144.748550,136.451523 146.587509,132.807220 
	C147.422165,131.153122 149.259216,130.607605 151.442444,132.084885 
	C152.361588,133.049744 152.448135,133.892334 152.483810,135.167542 
	C150.057953,141.570435 150.928238,146.846756 154.588531,152.350983 
	C157.609848,156.894348 157.678757,162.827942 159.532043,167.991364 
	C164.500458,181.833893 163.523315,196.206894 163.483948,210.898880 
	C163.540390,212.343475 163.291550,213.344833 162.938644,214.706024 
	C162.750977,215.545456 162.645416,216.021774 162.465088,216.845810 
	C162.271423,217.395157 162.152832,217.596832 161.766418,218.020935 
	C158.900818,218.701050 157.624496,220.301208 157.450928,223.224411 
	C157.299545,224.025177 157.022232,224.358154 156.317307,224.762543 
z"/>
<path fill="#1BB08B" opacity="1.000000" stroke="none" 
	d="
M119.592018,198.449768 
	C119.185982,186.884399 121.505066,176.226227 125.004608,165.382919 
	C125.519257,164.500092 126.035843,164.141449 127.136261,164.029266 
	C129.696747,165.473953 129.347351,167.461823 128.992874,169.456482 
	C128.382599,172.890427 127.520027,176.285339 126.323364,179.534485 
	C122.250656,190.592529 123.071770,201.795288 124.909187,213.076492 
	C125.567368,217.117599 127.935318,219.970200 131.195404,222.825409 
	C131.413177,224.251541 131.635895,225.249313 130.360397,226.279114 
	C122.711685,224.848450 119.936012,221.551956 119.767799,214.211670 
	C119.650986,209.114426 119.691048,204.013596 119.592018,198.449768 
z"/>
<path fill="#1CABA7" opacity="1.000000" stroke="none" 
	d="
M130.403107,226.658173 
	C129.965714,225.981033 129.988022,225.425064 130.017212,224.590912 
	C130.025513,223.653488 130.038086,222.743301 130.659546,222.599640 
	C136.120529,221.337326 141.614594,220.020996 146.906891,223.957214 
	C146.951355,225.076508 146.942871,225.642227 146.926636,226.490814 
	C141.566864,226.775558 136.214859,226.777435 130.403107,226.658173 
z"/>
<path fill="#59259E" opacity="1.000000" stroke="none" 
	d="
M431.004517,194.586136 
	C425.333496,202.912338 416.401550,203.403107 408.024658,204.880310 
	C397.688751,206.702957 387.274750,206.013306 376.444244,205.003296 
	C373.858612,208.096130 370.632507,207.549759 367.622253,207.351883 
	C359.551331,206.821396 351.501160,206.008392 343.439331,205.349457 
	C327.547974,204.050537 311.693176,202.349945 295.773987,201.314346 
	C289.474731,200.904572 283.166656,200.022156 276.993988,198.347031 
	C271.486389,196.852417 265.877716,195.446854 259.602478,197.004303 
	C257.557373,196.501556 256.286133,195.494919 254.462921,194.680847 
	C249.599350,192.487671 254.925919,189.490982 252.662033,187.195618 
	C248.299240,188.969009 243.317459,189.723175 239.385406,184.983643 
	C236.682312,181.725433 236.623123,172.851700 239.178619,169.331207 
	C242.446762,164.828979 246.972244,164.997009 251.592209,166.266159 
	C249.957870,163.738358 245.533447,166.081375 244.368378,161.928436 
	C243.692749,158.225021 246.064850,156.905746 248.425827,156.221039 
	C254.821121,154.366348 261.365143,152.692734 268.073792,153.831177 
	C278.310669,155.568405 288.599884,155.604477 298.916443,155.481537 
	C303.377899,155.428375 307.843445,154.771713 312.647095,155.278122 
	C320.856720,155.391403 328.553406,154.518021 336.041290,152.007355 
	C341.600250,150.143463 347.471283,150.112061 353.590515,149.063293 
	C366.665802,149.461044 379.117950,152.553467 391.956787,151.450562 
	C397.382172,150.984497 403.174561,151.002991 408.710876,153.743423 
	C408.502960,157.322220 405.771362,156.343857 403.879242,156.417114 
	C395.738831,156.732269 387.603424,157.281021 379.457123,157.342194 
	C363.679688,157.460678 348.559662,161.216354 333.549011,165.526352 
	C328.237030,167.051575 322.594482,166.989471 317.429932,169.131866 
	C316.585663,169.482117 315.906311,169.967651 314.961395,170.860886 
	C313.847809,171.545456 312.980133,171.394882 311.733887,171.489532 
	C308.877869,170.358551 306.064880,171.476089 303.563538,169.858536 
	C302.031006,168.867462 301.035706,171.225082 299.318054,172.082886 
	C297.216949,172.594208 295.453705,172.412628 293.336823,172.896698 
	C289.292999,169.379074 285.404724,171.785080 281.292297,172.654053 
	C279.819916,174.153702 278.517883,173.412537 277.314972,173.040771 
	C275.542358,172.492905 273.762604,172.452957 272.062042,173.027496 
	C267.552399,174.550995 267.570160,174.603592 265.831726,170.345612 
	C265.225464,174.129211 265.543732,177.747009 265.566467,181.351471 
	C265.576538,182.947708 265.950714,184.375336 268.428467,184.198639 
	C272.022430,183.013855 274.767700,185.007828 278.110901,185.605072 
	C278.871948,185.970749 279.234985,186.293976 279.816895,186.880600 
	C280.394928,187.404114 280.733612,187.685837 281.391174,188.048172 
	C282.132629,188.134705 282.567657,188.125259 283.337189,188.101120 
	C285.014679,187.857712 286.480408,188.201096 287.980621,187.037994 
	C289.332123,186.265808 290.243195,186.775604 290.984070,187.354462 
	C294.445526,190.058960 298.149078,189.911697 302.391998,188.383179 
	C305.305298,190.221634 308.009399,190.833969 311.388855,189.372025 
	C313.426117,188.622116 315.048248,188.956467 317.092896,189.470566 
	C325.103790,191.975784 333.008087,192.343323 340.823792,193.428772 
	C354.691010,195.354630 368.720703,194.750626 382.595398,197.019348 
	C391.370087,198.454163 400.556976,198.239685 409.464111,197.016922 
	C418.943756,195.715576 425.149841,189.585861 429.498291,181.406631 
	C430.545044,179.437775 430.593323,177.254684 430.365753,175.073334 
	C430.219147,173.668137 429.554871,172.172653 431.555359,171.047607 
	C437.421997,176.314606 437.916870,181.474014 433.256653,186.846146 
	C431.346069,189.048645 431.014618,191.501709 431.004517,194.586136 
z"/>
<path fill="#5E29A1" opacity="1.000000" stroke="none" 
	d="
M313.887085,170.142426 
	C315.871948,167.117126 318.714661,166.173218 321.650238,165.476105 
	C335.692596,162.141464 349.677277,158.511841 363.821228,155.680435 
	C370.435364,154.356369 377.357117,154.407974 384.150909,154.184372 
	C392.111572,153.922348 400.084717,154.039429 408.518738,153.991150 
	C419.499664,155.372742 428.093353,159.436707 431.902649,170.672699 
	C434.848450,176.933029 433.659363,181.888901 429.497314,187.023636 
	C422.834503,195.243484 415.202148,200.065536 404.105286,200.202393 
	C391.240936,200.361053 378.643799,197.777039 365.879639,197.705597 
	C351.883789,197.627228 338.226593,194.327515 324.287598,193.925552 
	C321.771545,193.853012 319.283600,193.573486 317.210693,191.244965 
	C316.276764,190.265442 315.503448,189.611938 315.313782,188.102615 
	C317.947327,185.494400 321.190704,185.632584 324.609741,184.887146 
	C326.474335,184.491653 327.414093,185.138824 328.449982,186.114471 
	C332.801300,190.212708 335.377686,190.447311 341.265991,187.370270 
	C343.471985,187.562317 344.894928,189.333817 347.337677,188.907196 
	C347.910522,188.991379 348.142883,188.994522 348.722839,188.996918 
	C349.534393,188.993805 349.997925,188.977905 350.798584,188.858414 
	C352.565491,188.379623 353.921875,188.911728 355.661072,189.115372 
	C359.298218,189.345428 362.471741,191.276199 366.234894,189.666901 
	C367.125153,189.469696 367.641785,189.351212 368.563416,189.125366 
	C370.451294,188.631241 371.876495,189.179459 373.793945,189.323898 
	C380.938507,194.403336 388.588348,193.817734 396.097504,192.610809 
	C398.516968,192.221954 400.843597,192.259201 403.098938,192.486862 
	C404.812592,192.659866 406.252655,192.664764 407.916321,191.548447 
	C408.642578,190.204437 409.009399,189.312805 410.522614,189.167603 
	C418.540741,188.398254 421.563538,182.507889 417.737427,175.358505 
	C417.191650,174.338669 416.437317,173.456345 415.612610,172.187561 
	C415.008514,166.616302 410.590057,166.379044 406.592316,165.146210 
	C404.654114,165.387497 403.088989,165.322174 401.117096,165.205597 
	C394.803253,165.739746 388.997437,164.359177 383.113892,164.245316 
	C380.141052,164.187775 377.244904,164.147751 373.985901,164.961792 
	C372.349854,164.912186 371.136169,165.107849 369.596558,165.501892 
	C369.025909,165.605225 368.798889,165.647049 368.226349,165.710449 
	C367.648834,165.743546 367.416901,165.755051 366.835327,165.795349 
	C363.377625,165.860565 360.279999,166.546707 356.800629,165.962143 
	C354.053802,165.571716 352.267456,166.805557 350.141998,168.213715 
	C346.365662,169.425964 342.354614,169.170685 339.545593,172.733032 
	C336.784363,172.535400 334.409637,172.466736 331.577026,172.448181 
	C329.148071,169.848221 326.911865,171.290070 324.292877,172.033966 
	C320.718750,172.001740 317.915283,176.026108 314.212830,172.556671 
	C313.748108,171.707962 313.713776,171.145142 313.887085,170.142426 
z"/>
<path fill="#47198D" opacity="1.000000" stroke="none" 
	d="
M162.043427,213.110168 
	C160.624985,209.603287 160.830231,206.234863 161.102753,202.973328 
	C162.490723,186.362320 157.355042,170.918289 152.876968,155.349243 
	C152.563370,154.258911 152.107681,152.952042 151.280426,152.307770 
	C144.888809,147.330017 147.776642,141.901764 150.588226,136.193359 
	C152.537201,135.929794 152.871689,137.368332 153.506561,138.464020 
	C154.620438,140.386383 156.030624,141.725311 158.817200,141.216339 
	C160.197037,141.147888 161.609100,141.687500 161.029968,139.533203 
	C160.169342,136.331741 159.609055,133.248886 162.958649,130.640228 
	C163.747314,130.026031 165.270660,126.232826 160.836060,125.959557 
	C159.165558,125.970596 157.918137,126.386391 156.208435,126.484589 
	C150.738617,126.508934 145.688873,126.494125 140.180145,126.500183 
	C138.201950,126.380287 136.581039,126.847893 135.115692,125.261078 
	C135.615768,117.273331 141.906708,110.831375 151.636368,108.069962 
	C155.342606,109.991188 158.159027,112.382828 159.599686,116.217087 
	C160.237900,117.915672 161.643188,119.515488 163.777802,119.089310 
	C166.009979,118.643661 165.588821,116.619507 165.535538,115.004387 
	C165.405594,111.065826 167.655563,110.061516 171.001846,110.634224 
	C176.354248,111.550278 180.884293,113.513138 182.229248,119.597198 
	C183.004883,123.105873 185.354019,125.779282 187.798218,128.730042 
	C185.742035,129.845490 183.798111,128.757736 181.774994,128.035706 
	C180.058487,127.423103 178.154648,126.624962 176.609009,128.107651 
	C174.961609,129.687958 176.105530,131.541763 176.738907,133.200638 
	C179.045853,139.242676 181.417511,145.260010 183.870667,151.631958 
	C183.868149,152.429031 183.949554,152.848083 184.434753,153.471283 
	C187.873047,157.750748 187.789200,163.860550 193.202866,166.868774 
	C195.000427,168.015015 195.910004,169.285324 195.311157,171.474014 
	C195.335388,178.452652 199.963959,183.204224 202.645996,188.802658 
	C204.139893,191.920990 206.217438,194.761292 206.935989,198.619293 
	C203.389786,202.017044 199.221725,199.953247 195.310318,200.212769 
	C194.761627,200.249146 194.528946,200.577667 193.647278,200.656647 
	C186.126297,200.554703 179.103485,200.457275 172.071289,200.656723 
	C168.966248,200.744781 168.769638,201.728943 168.824799,204.274002 
	C168.847626,205.327286 168.862091,206.592667 168.717102,207.757126 
	C168.013351,213.409729 168.187225,213.431381 162.043427,213.110168 
z"/>
<path fill="#512096" opacity="1.000000" stroke="none" 
	d="
M253.442459,190.600906 
	C255.010361,191.527740 256.534546,192.132278 258.532410,192.868317 
	C269.196716,196.317108 279.605560,198.933823 290.147766,200.614929 
	C301.100647,202.361496 312.302155,202.143982 323.327698,203.516556 
	C333.857025,204.827393 344.560822,204.251419 354.995880,206.557831 
	C358.160004,207.257202 361.596619,207.157654 363.955597,210.504852 
	C365.878540,216.021927 369.724091,219.415070 373.670685,222.740952 
	C375.052063,223.905090 376.323425,225.199692 377.820557,226.715881 
	C373.075684,226.622681 368.518921,225.261551 364.547089,222.196167 
	C362.269257,220.438187 359.655029,219.319397 356.847412,218.758179 
	C338.249908,215.040649 319.834198,210.047073 300.584595,210.949265 
	C294.836945,211.218643 289.525269,208.400543 283.882202,208.108017 
	C269.144958,207.344070 254.972015,203.712860 240.391327,200.063812 
	C226.834488,196.553116 218.438202,183.323257 220.919556,169.391998 
	C221.452805,169.000168 221.896439,169.000931 222.673035,169.001831 
	C225.360931,170.619461 226.486526,169.084763 227.019730,167.163727 
	C229.090057,159.704498 234.955444,156.586288 241.418320,153.781891 
	C256.538361,147.220963 272.446472,146.300949 288.405457,147.929062 
	C296.631866,148.768311 304.199493,146.205673 312.560638,146.003326 
	C314.157928,147.845184 314.466095,149.519882 312.337006,150.987106 
	C310.534943,152.228989 310.627075,153.550049 312.740692,154.861267 
	C310.295258,157.802307 306.696198,157.896500 303.244751,157.907227 
	C291.297607,157.944336 279.378967,158.219971 267.429901,156.627533 
	C260.183838,155.661850 252.481979,155.770126 246.161682,161.566254 
	C246.517090,164.505966 244.189301,164.661301 242.737869,165.512299 
	C237.551010,168.553497 235.105698,173.212463 235.848358,178.796921 
	C236.757370,185.632217 241.273193,189.362732 248.168045,189.281555 
	C249.896576,189.261200 252.130951,187.576935 253.442459,190.600906 
z"/>
<path fill="#2588B6" opacity="1.000000" stroke="none" 
	d="
M192.373550,199.733917 
	C197.147827,199.348312 201.611084,199.227493 206.538910,199.045441 
	C214.170502,199.601288 214.170502,199.601288 214.435593,207.569885 
	C214.433548,209.646133 214.209244,211.313721 214.349426,212.950058 
	C214.734909,217.450211 213.730530,220.510803 208.253723,219.852936 
	C207.006912,219.703171 205.868546,219.911972 205.149994,221.578400 
	C202.177795,228.471298 200.999985,228.812225 194.089508,225.562607 
	C193.648804,225.355377 193.131958,225.310043 192.315460,225.071930 
	C191.756805,224.252701 191.527618,223.552063 191.573074,222.444977 
	C192.043594,220.506805 193.693741,220.943115 194.847107,220.167908 
	C191.672974,219.250061 187.504272,219.734558 187.765198,214.394653 
	C188.123734,213.631821 188.356537,213.204025 188.756393,212.437958 
	C193.057510,210.385391 196.961121,212.540222 200.971375,212.834747 
	C202.115891,212.918808 203.220169,213.445923 204.396973,213.467911 
	C206.667740,213.510345 208.337189,212.605774 208.749832,210.248444 
	C209.183777,207.769394 208.028259,206.013565 205.726639,205.155212 
	C202.770065,204.052597 199.638107,204.142059 196.535721,203.990509 
	C194.894409,203.910339 193.042847,204.573883 191.604980,202.652451 
	C191.532974,201.462967 191.423904,200.645981 192.373550,199.733917 
z"/>
<path fill="#1E93B8" opacity="1.000000" stroke="none" 
	d="
M193.639984,131.968872 
	C198.641739,131.663742 201.532486,134.100800 202.071472,138.940506 
	C202.576248,143.473145 200.221298,146.166077 194.328400,147.828751 
	C193.402328,147.306381 192.747665,146.885269 192.496704,145.749817 
	C192.555878,144.416382 192.576431,143.555679 193.363693,142.703613 
	C197.913651,137.779343 197.879547,137.747833 192.745026,133.903870 
	C192.941833,133.100342 193.208344,132.694077 193.639984,131.968872 
z"/>
<path fill="#1FA895" opacity="1.000000" stroke="none" 
	d="
M193.389954,131.654327 
	C193.810135,132.090118 193.860489,132.559601 193.937469,133.382294 
	C194.125671,134.683197 193.641129,135.389130 192.833740,136.261902 
	C192.187210,136.652145 191.890335,136.947296 191.635132,137.648041 
	C191.500458,140.561417 194.147354,142.210175 193.951767,145.178986 
	C193.956482,146.095245 193.962219,146.666718 193.965210,147.523972 
	C189.231491,147.255157 186.188095,144.840057 186.024017,139.886780 
	C185.868729,135.199539 188.472168,132.531738 193.389954,131.654327 
z"/>
<path fill="#1E93B8" opacity="1.000000" stroke="none" 
	d="
M199.635101,161.260193 
	C203.744339,160.758102 205.919724,162.845917 206.369278,166.382339 
	C206.895416,170.521454 204.573257,172.866730 200.250076,173.679092 
	C199.271255,173.192184 198.839508,172.591324 198.622803,171.483154 
	C198.443817,169.161346 203.764343,169.392334 200.285721,165.985367 
	C199.555023,165.077286 199.161957,164.399597 198.702545,163.316956 
	C198.709259,162.389114 198.962845,161.932312 199.635101,161.260193 
z"/>
<path fill="#1FA895" opacity="1.000000" stroke="none" 
	d="
M199.546814,160.951630 
	C199.936737,161.394379 199.969940,161.827194 200.007278,162.585587 
	C200.067413,163.329102 200.119339,163.747528 200.122665,164.476685 
	C199.985062,165.193802 199.818085,165.566360 199.363358,166.126968 
	C199.020004,166.749649 199.045822,167.134811 199.395081,167.762085 
	C200.575699,168.857864 199.976074,169.901688 199.917511,171.188797 
	C199.910904,172.039246 199.911346,172.579117 199.901978,173.388763 
	C198.321609,173.556778 196.951965,172.926025 195.373230,171.917786 
	C194.616928,170.393311 194.160660,169.006927 193.623764,167.314697 
	C194.283630,163.923706 195.541519,161.320114 199.546814,160.951630 
z"/>
<path fill="#1CABA7" opacity="1.000000" stroke="none" 
	d="
M184.594482,153.484207 
	C182.539871,154.108032 180.400238,154.553802 177.757980,153.183456 
	C179.747208,151.577301 181.539520,152.153564 183.568848,151.987915 
	C184.155518,152.406464 184.334488,152.835678 184.594482,153.484207 
z"/>
<path fill="#1CABA7" opacity="1.000000" stroke="none" 
	d="
M192.878662,222.697311 
	C192.669495,223.598923 192.465103,224.063446 192.120544,224.741241 
	C188.210663,228.036407 184.578964,229.363922 179.929932,226.014801 
	C177.330048,224.141907 173.739777,224.645996 170.213440,225.839172 
	C169.592270,225.748123 169.338242,225.614517 168.771698,225.181732 
	C167.962219,220.661880 169.077805,219.158188 172.843811,219.681198 
	C176.019684,220.122253 179.421951,219.570831 182.216568,222.160721 
	C183.766312,223.596939 185.880798,222.133453 187.700073,221.705368 
	C189.515289,221.278229 191.389999,219.838287 192.878662,222.697311 
z"/>
<path fill="#1BB08B" opacity="1.000000" stroke="none" 
	d="
M169.151215,223.880844 
	C169.517792,224.484207 169.584015,224.763779 169.748291,225.462524 
	C165.212814,230.542358 161.035629,226.509415 156.372482,225.068848 
	C156.114029,224.509705 156.198990,224.074219 156.347183,223.311966 
	C156.938950,222.029037 157.361496,220.416718 158.784637,221.334946 
	C161.915222,223.354874 165.598022,222.397644 169.151215,223.880844 
z"/>
<path fill="#552398" opacity="1.000000" stroke="none" 
	d="
M364.445984,210.999695 
	C350.961853,207.143875 337.373688,207.710358 324.083557,205.940735 
	C308.970551,203.928406 293.606354,203.444748 278.793182,199.610565 
	C272.289032,197.927078 265.460693,196.966476 259.243317,193.254303 
	C268.659729,193.765427 277.731537,197.384949 287.279449,198.720535 
	C301.437897,200.701096 315.740387,200.451096 329.947968,201.700134 
	C344.974762,203.021164 360.038788,203.918289 375.541809,205.001068 
	C377.578613,206.756622 379.739014,206.819092 381.869812,207.122101 
	C390.008118,208.279465 398.134399,209.521118 406.632172,210.866791 
	C399.256805,213.179489 391.500092,211.654297 383.769501,210.984650 
	C377.463196,210.438354 371.185364,210.717621 364.445984,210.999695 
z"/>
<path fill="#1FA895" opacity="1.000000" stroke="none" 
	d="
M134.643646,124.901688 
	C136.377823,124.872192 137.762085,124.940491 139.558624,125.064575 
	C140.335052,125.447060 140.681473,125.791451 141.170273,126.475800 
	C141.377563,127.122864 141.522614,127.650009 141.363892,127.753593 
	C135.357788,131.673447 137.602310,136.459122 139.909088,141.597565 
	C139.938248,142.378632 139.967728,142.818634 140.003296,143.589355 
	C140.036652,145.232513 139.949295,146.543732 139.963516,148.184113 
	C139.973969,149.114883 139.988129,149.717606 139.995041,150.621704 
	C140.017776,151.421799 140.089233,152.212936 139.766785,152.332932 
	C134.059341,154.457047 131.692551,159.132568 130.156296,164.540955 
	C129.867813,165.556564 128.919418,166.069336 127.432907,165.252579 
	C126.653969,165.049438 126.214073,165.037567 125.444138,165.022507 
	C126.658157,159.371658 126.782814,153.200363 132.215118,149.135422 
	C134.256302,147.608017 133.049454,135.084976 131.175461,133.354172 
	C127.257927,129.735901 127.359856,128.787460 132.028091,126.028511 
	C132.738052,125.608925 133.536331,125.338776 134.643646,124.901688 
z"/>
<path fill="#43168A" opacity="1.000000" stroke="none" 
	d="
M127.067978,165.460938 
	C127.740868,163.051590 128.465927,161.063156 129.020660,159.028290 
	C130.925140,152.042450 131.978989,151.182327 139.571915,150.963654 
	C149.523911,151.404144 149.087036,151.543442 152.141663,161.123322 
	C157.189224,176.953369 159.991257,192.984451 158.996964,209.629181 
	C158.850586,212.079468 158.832184,214.103546 155.900513,215.020157 
	C153.720169,215.701859 151.842987,217.837219 152.394852,219.932800 
	C153.677032,224.801636 150.448822,224.109787 147.366699,224.443253 
	C141.624115,224.434113 136.288376,224.357452 130.488373,224.296768 
	C124.301765,222.403549 122.146240,219.717194 122.002068,213.902908 
	C121.599625,197.674698 121.437897,181.462418 127.067978,165.460938 
z"/>
<path fill="#461D8F" opacity="1.000000" stroke="none" 
	d="
M169.627136,223.933929 
	C166.342133,226.341461 163.313904,226.567413 160.416992,223.814560 
	C159.467743,222.912491 158.258240,223.086746 156.760773,222.991516 
	C154.221024,218.315674 154.659195,217.584305 160.470886,216.836716 
	C160.968430,216.959930 161.074570,217.107376 160.961578,217.092804 
	C160.828873,216.550110 160.915298,216.169403 161.089264,215.506958 
	C162.823746,212.222656 165.588196,213.082870 168.486115,213.265823 
	C171.915649,217.409409 176.124191,215.309982 180.172791,215.149673 
	C180.699905,214.666336 180.989090,214.363678 181.508270,213.799927 
	C184.229828,212.225204 186.666412,211.552826 188.946579,214.467194 
	C191.243073,218.069885 194.958786,217.084732 197.983597,217.893784 
	C199.946686,218.418823 201.947266,218.373154 202.640121,220.698822 
	C203.057129,222.098511 202.530823,223.373154 201.399490,224.197647 
	C199.487671,225.590973 197.735779,224.880356 195.987839,223.632950 
	C195.384018,223.202011 194.443237,223.243210 193.265137,223.101578 
	C191.478027,222.781113 190.358566,223.200958 189.303818,224.179062 
	C186.458435,226.817581 183.710846,226.360886 181.135818,223.726822 
	C180.241806,222.812302 179.141815,221.115051 178.004807,222.372208 
	C175.464127,225.181335 171.694138,218.378174 169.627136,223.933929 
z"/>
<path fill="#461D8F" opacity="1.000000" stroke="none" 
	d="
M140.313934,141.876221 
	C136.121201,142.215347 134.562027,140.487350 134.903290,136.699402 
	C135.015106,135.458130 134.422333,134.164108 134.232773,132.882233 
	C133.995529,131.277771 130.724976,131.208176 131.985062,129.201111 
	C133.164001,127.323334 135.505768,127.027176 137.699921,127.027618 
	C138.190842,127.027718 138.681747,126.995956 139.573578,126.924881 
	C145.284393,125.002731 150.806442,126.649635 156.661560,125.990158 
	C158.179092,126.503517 158.328598,127.430420 158.458984,128.813751 
	C158.151566,132.975967 154.554642,130.710144 152.658936,132.334122 
	C152.022827,132.454697 151.762817,132.474136 151.111710,132.496368 
	C148.880798,133.514633 147.907715,135.262695 147.421753,137.131836 
	C146.490677,140.713120 144.346954,142.247223 140.313934,141.876221 
z"/>
<path fill="#1FA895" opacity="1.000000" stroke="none" 
	d="
M169.381195,215.097809 
	C166.603836,214.459549 164.256424,213.416840 161.522858,215.113251 
	C161.252838,214.589890 161.328873,213.954575 161.467804,213.092438 
	C166.413177,212.221344 168.000427,209.386993 167.199387,204.701569 
	C166.437057,200.242615 168.670914,198.919449 172.912125,199.134781 
	C179.202011,199.454117 185.515289,199.313080 192.251587,199.418564 
	C192.708954,199.987915 192.733337,200.506714 192.751648,201.285431 
	C193.064468,203.893448 191.635544,203.954590 189.862381,203.943970 
	C186.073532,203.921265 182.283386,204.008194 178.493439,203.947815 
	C177.826859,203.937119 178.483322,204.783432 178.386887,204.123779 
	C178.362869,203.959457 178.441269,203.838577 178.587219,203.881012 
	C180.782486,204.518906 183.293106,203.177582 185.389191,205.322388 
	C185.580276,206.480957 185.839035,207.258301 185.545563,208.478958 
	C184.222351,211.732178 181.324142,210.647278 179.227951,211.357452 
	C176.772766,212.189240 173.951797,211.891678 171.516510,214.022110 
	C170.890472,214.827194 170.401382,215.066330 169.381195,215.097809 
z"/>
<path fill="#47198D" opacity="1.000000" stroke="none" 
	d="
M140.371597,148.458771 
	C138.361099,148.131470 136.026855,148.851761 136.016342,146.032288 
	C136.007904,143.766907 137.817612,144.176926 139.607452,143.964813 
	C141.575668,144.673904 144.481842,142.808548 144.729172,145.987762 
	C144.951294,148.842987 142.385223,148.036453 140.371597,148.458771 
z"/>
<path fill="#1FA895" opacity="1.000000" stroke="none" 
	d="
M159.050598,144.583939 
	C154.669846,143.453369 152.596069,140.296570 150.957245,136.281265 
	C150.812927,135.074615 150.779327,134.216171 150.733154,132.928467 
	C150.720612,132.499176 150.754959,132.547501 150.729355,132.563416 
	C151.222504,132.333893 151.763779,132.157410 152.755966,132.023865 
	C156.210297,134.888046 157.228226,139.098907 160.038437,142.600815 
	C160.072769,143.537445 159.819351,144.003464 159.050598,144.583939 
z"/>
<path fill="#B7B4B8" opacity="1.000000" stroke="none" 
	d="
M253.705521,190.644165 
	C247.248459,192.643494 241.268570,192.895950 236.645004,187.331711 
	C232.553589,182.407883 232.061539,176.767090 234.159958,170.914047 
	C236.006073,165.764709 239.939667,162.968964 245.620987,161.934845 
	C250.875916,161.995575 255.236511,163.261047 257.935150,167.748138 
	C258.763367,169.125198 260.007355,171.032913 258.367218,172.218475 
	C256.815979,173.339752 254.706268,173.345139 253.002441,171.587494 
	C248.908401,167.364151 244.897278,166.701202 242.050919,169.619461 
	C238.789139,172.963623 239.037476,181.908508 242.472458,184.803741 
	C245.576782,187.420273 250.713120,186.902710 252.295670,183.224777 
	C253.711182,179.935013 256.239624,178.925613 258.415558,180.430496 
	C260.935760,182.173508 258.629639,184.897583 257.437927,186.867142 
	C256.607635,188.239304 255.119278,189.213287 253.705521,190.644165 
z"/>
<path fill="#BAB7BA" opacity="1.000000" stroke="none" 
	d="
M278.499512,191.517624 
	C277.702667,191.211105 277.287720,190.887695 276.663940,190.226166 
	C276.987610,186.512726 274.263855,184.306992 273.650238,181.093536 
	C271.097382,181.808182 271.259033,184.508118 269.374023,185.757553 
	C269.098236,186.836075 268.948883,187.673203 269.021179,188.490753 
	C269.220154,190.740433 268.091431,191.342819 266.046600,191.306427 
	C264.021729,191.270355 263.022552,190.613281 263.042023,188.413818 
	C263.108246,180.939606 263.111389,173.463593 263.013214,165.989914 
	C262.983093,163.698929 263.684570,162.680023 266.121094,162.715164 
	C268.649963,162.751663 269.168854,164.021149 269.031128,166.180466 
	C268.916016,167.984985 269.007507,169.802689 269.007507,172.132599 
	C272.572205,170.340012 275.782501,169.039032 279.614929,170.909729 
	C284.024658,171.713043 285.142151,173.960480 284.402924,177.976074 
	C283.728485,181.639908 285.786530,185.535446 283.435852,189.612244 
	C282.806335,190.330215 282.577301,190.648071 282.140747,191.175735 
	C280.921112,191.560226 279.899414,191.480698 278.499512,191.517624 
z"/>
<path fill="#BAB7BA" opacity="1.000000" stroke="none" 
	d="
M303.127563,190.721405 
	C297.762177,192.443695 293.050354,192.787277 288.635681,188.680725 
	C287.555939,188.349030 286.736267,188.600601 286.047089,187.896851 
	C282.001984,183.766006 284.767822,171.878922 290.233124,170.208664 
	C290.780518,170.041382 291.504639,170.369598 292.612640,170.124969 
	C294.789551,170.131454 296.473389,170.056808 298.575623,169.929382 
	C302.521667,168.634186 305.159851,169.915207 307.402435,173.246887 
	C309.786194,178.066299 309.143555,182.579178 308.155273,187.580017 
	C307.475372,190.522598 305.323181,190.204300 303.127563,190.721405 
z"/>
<path fill="#BAB7BA" opacity="1.000000" stroke="none" 
	d="
M317.397583,187.692017 
	C317.071991,188.746048 317.021301,189.486908 316.973755,190.600159 
	C315.263489,191.061996 313.550049,191.151443 311.415466,191.147217 
	C309.776886,190.890015 309.183380,190.163376 309.075531,188.449310 
	C308.970978,183.412109 308.722229,178.891891 309.118591,173.871277 
	C309.230774,172.708969 309.337921,172.055740 309.828735,171.059174 
	C311.431061,170.379623 312.723480,170.539307 314.484650,170.505768 
	C317.845917,172.860825 320.409821,169.713943 323.550873,170.031891 
	C326.337891,171.741608 326.366943,174.921509 324.916687,176.098816 
	C321.139160,179.165405 320.350494,183.820877 317.397583,187.692017 
z"/>
<path fill="#5E29A1" opacity="1.000000" stroke="none" 
	d="
M292.728851,170.048553 
	C285.636414,174.819214 284.152039,179.981186 288.184845,188.153381 
	C286.829529,188.968887 285.329712,189.451782 283.432617,189.973511 
	C282.946716,185.852066 282.955322,181.686508 282.729523,177.533691 
	C282.611694,175.367325 281.934753,173.282730 280.181915,171.315430 
	C283.948883,168.849091 288.067566,168.453613 292.728851,170.048553 
z"/>
<path fill="#662FAA" opacity="1.000000" stroke="none" 
	d="
M269.512268,186.034027 
	C269.108734,183.712830 268.903564,181.404800 269.080231,179.126373 
	C269.258392,176.829269 270.312561,175.024963 273.001923,174.922531 
	C275.974609,174.809280 276.534790,176.908752 276.620911,179.151871 
	C276.746765,182.429276 276.646454,185.715378 276.548828,189.442902 
	C275.148315,187.090591 272.713379,186.231491 269.512268,186.034027 
z"/>
<path fill="#5E29A1" opacity="1.000000" stroke="none" 
	d="
M311.372986,170.743347 
	C311.004913,171.482300 310.978638,171.915619 310.899109,172.670135 
	C309.816956,174.488373 308.555939,175.285431 306.307648,174.291687 
	C304.028534,172.527206 302.154449,170.845688 299.317078,170.010986 
	C302.736877,167.109421 306.605255,168.143967 310.735657,169.688477 
	C311.229675,170.065643 311.472229,170.251678 311.372986,170.743347 
z"/>
<path fill="#5E29A1" opacity="1.000000" stroke="none" 
	d="
M310.510864,187.631897 
	C310.893646,188.770477 310.941742,189.530472 310.992065,190.671997 
	C308.473022,193.715714 305.903656,192.253571 302.996918,190.981583 
	C303.516968,189.952988 304.378479,189.085617 305.500549,188.058258 
	C307.149078,187.110397 308.420837,185.526657 310.510864,187.631897 
z"/>
<path fill="#662FAA" opacity="1.000000" stroke="none" 
	d="
M278.384369,191.617035 
	C279.134216,191.456223 280.150879,191.377930 281.550354,191.342590 
	C280.839172,191.490204 279.745178,191.594864 278.384369,191.617035 
z"/>
<path fill="#713AAF" opacity="1.000000" stroke="none" 
	d="
M311.420898,170.971252 
	C311.019623,170.854507 311.008087,170.660034 310.991821,170.172592 
	C311.730621,169.842224 312.474152,169.804855 313.588745,169.738861 
	C314.195068,169.873077 314.425537,170.042313 314.807678,170.364380 
	C313.912933,170.638336 312.861755,170.765930 311.420898,170.971252 
z"/>
<path fill="#BCBABC" opacity="1.000000" stroke="none" 
	d="
M367.672699,162.582382 
	C369.392975,162.573929 370.861542,162.662094 372.765564,162.825348 
	C376.662048,165.216278 375.116028,168.744537 375.363892,172.325378 
	C375.487854,176.703964 375.576324,180.595230 375.334290,184.980560 
	C375.188599,187.417831 375.819519,189.540558 373.527100,191.182770 
	C371.619873,191.311295 370.211121,191.356583 368.383911,191.463165 
	C367.693604,191.516617 367.421692,191.508804 366.743469,191.483612 
	C365.482880,191.228622 365.016876,190.674240 364.969238,189.416550 
	C364.975067,188.550507 365.017578,188.046417 364.965820,187.552017 
	C364.726044,185.262604 363.999908,182.932343 361.373993,182.975296 
	C358.792694,183.017487 357.857239,185.115326 358.046539,187.974899 
	C358.098755,189.436646 357.993591,190.445557 356.304138,190.801880 
	C354.206909,190.980972 352.513367,191.169724 350.392792,191.392288 
	C349.779510,191.392471 349.593292,191.358841 349.227814,191.105164 
	C349.048523,190.885101 349.002930,190.931061 349.029907,190.948914 
	C346.372498,189.106827 346.671692,186.490265 346.994110,183.702042 
	C347.638397,178.130081 345.032532,172.305603 348.583862,166.462708 
	C349.440216,160.967056 352.709808,162.768478 355.767456,163.686554 
	C356.260681,164.230545 356.482880,164.473724 356.695801,164.725296 
	C361.743408,170.689362 361.743408,170.689362 366.604858,164.247833 
	C366.836151,163.991943 366.954468,163.519211 366.985596,163.277557 
	C367.151489,162.916931 367.286255,162.797974 367.672699,162.582382 
z"/>
<path fill="#B7B4B8" opacity="1.000000" stroke="none" 
	d="
M417.802856,170.676910 
	C422.374969,174.584930 422.643250,179.496140 421.876251,184.503876 
	C421.069702,189.769989 417.325623,192.093231 410.513794,191.731995 
	C408.749481,191.839249 407.514404,192.380386 406.089081,192.483459 
	C400.404510,192.894608 399.475067,192.241852 399.051636,186.147491 
	C398.834900,181.835663 399.134308,178.033188 398.922913,173.735626 
	C399.248962,170.039047 397.417542,166.509338 400.781952,163.394257 
	C402.901093,162.955109 404.645569,162.850708 406.820953,162.835922 
	C409.164429,165.876450 411.997986,167.707489 415.247223,168.603058 
	C416.509796,168.951035 417.041290,169.504074 417.802856,170.676910 
z"/>
<path fill="#BAB7BA" opacity="1.000000" stroke="none" 
	d="
M330.615356,170.173141 
	C333.358093,170.156677 335.671936,170.188293 338.410858,170.303879 
	C341.830597,169.058029 343.774292,170.615616 345.455597,172.824615 
	C347.686981,175.756348 347.647003,179.364258 346.520416,182.285278 
	C345.576324,184.732971 342.260345,183.119156 340.029419,183.575638 
	C340.630981,183.349960 341.640076,183.412964 341.812286,183.510696 
	C343.408264,184.416580 346.343597,182.131439 346.806335,185.238998 
	C347.237671,188.135620 345.035095,189.104523 342.286743,189.777069 
	C335.338226,193.124985 331.760895,192.590027 325.991943,187.330597 
	C323.243073,186.107498 322.577393,184.166122 322.607697,181.609390 
	C322.661346,177.081146 326.334412,171.400864 330.615356,170.173141 
z"/>
<path fill="#652FA6" opacity="1.000000" stroke="none" 
	d="
M400.710693,163.041824 
	C401.135925,166.070053 401.115295,169.080582 401.038330,172.539856 
	C400.178894,173.677231 399.651703,174.723206 398.078979,174.889252 
	C395.824951,175.131622 394.221680,173.917252 392.023987,173.954376 
	C389.326172,174.529327 387.161163,173.814270 384.603210,173.167572 
	C381.950989,172.675369 380.483673,174.967773 377.923340,174.882446 
	C376.137299,175.044540 374.768585,175.137329 373.750488,173.285522 
	C373.467957,169.867340 373.364716,166.841751 373.231232,163.358276 
	C379.836700,159.136139 386.690948,162.696503 393.433014,162.347870 
	C395.692596,162.231049 397.986572,162.779678 400.710693,163.041824 
z"/>
<path fill="#662FAA" opacity="1.000000" stroke="none" 
	d="
M342.347412,190.079163 
	C342.632751,188.442368 345.325073,187.186966 343.781097,185.455399 
	C342.709869,184.254013 340.322174,184.727676 338.763397,186.053650 
	C337.364014,187.244034 335.719940,187.274918 334.048676,187.046249 
	C332.383636,186.818436 331.198334,185.850876 331.191742,184.139877 
	C331.184143,182.169800 332.908020,182.454407 334.152679,182.392426 
	C336.141052,182.293381 338.137390,182.366699 340.129791,182.333084 
	C345.457336,182.243225 346.452057,180.549469 344.167328,175.597061 
	C343.147430,173.386307 341.591400,171.768494 339.088806,170.607422 
	C341.271912,167.498779 344.850861,167.147308 348.517517,166.095764 
	C348.940918,174.012527 349.003571,182.023163 349.061584,190.500305 
	C346.948730,190.700241 344.840515,190.433701 342.347412,190.079163 
z"/>
<path fill="#652FA6" opacity="1.000000" stroke="none" 
	d="
M400.698547,185.727203 
	C400.842896,190.769348 402.641998,192.674316 407.423676,190.554153 
	C407.948547,190.321426 408.863190,190.967743 409.849731,191.435394 
	C409.039246,193.258286 407.623352,194.438354 405.655304,194.372131 
	C396.307220,194.057526 386.931610,196.024643 377.599365,193.993256 
	C375.960510,193.636505 374.332642,193.464310 373.197968,191.563843 
	C373.156250,189.502350 373.283875,187.738739 373.487030,185.540771 
	C374.153137,183.662430 375.026917,182.686005 377.167389,183.215057 
	C378.505219,183.417526 379.408081,183.391663 380.165588,184.324524 
	C385.130920,190.439285 385.433594,190.475891 392.795776,186.709549 
	C394.542175,185.688919 395.190155,183.925964 397.448608,184.266541 
	C399.059753,183.814423 399.694031,184.721863 400.698547,185.727203 
z"/>
<path fill="#662FAA" opacity="1.000000" stroke="none" 
	d="
M330.711304,169.995819 
	C325.388519,174.205719 323.328583,179.476669 325.763611,186.625610 
	C323.188049,187.350937 320.565277,187.670654 317.532623,187.997772 
	C317.082794,185.523819 316.934296,183.038071 317.034363,180.562363 
	C317.129333,178.211533 318.187225,176.162827 320.721558,175.988907 
	C324.382843,175.737671 324.528717,173.573456 324.022766,170.437378 
	C326.066925,169.541672 328.204590,168.983871 330.711304,169.995819 
z"/>
<path fill="#662FAA" opacity="1.000000" stroke="none" 
	d="
M366.467804,163.906982 
	C366.892609,165.136169 366.990601,166.280106 366.998566,167.424667 
	C367.038605,173.168823 362.984467,175.690582 357.478607,173.468765 
	C356.121307,172.921051 355.880157,171.961151 355.860779,170.785477 
	C355.828400,168.820084 355.862762,166.853592 355.948608,164.442078 
	C359.382080,163.753464 362.723053,162.765549 366.467804,163.906982 
z"/>
<path fill="#652FA6" opacity="1.000000" stroke="none" 
	d="
M417.933472,170.602570 
	C416.437836,170.635086 414.587311,169.650131 413.307129,170.143921 
	C405.766266,173.052567 407.514923,167.558884 407.274414,163.355286 
	C411.998688,163.618195 415.835876,165.622833 417.933472,170.602570 
z"/>
<path fill="#652FA6" opacity="1.000000" stroke="none" 
	d="
M366.513794,187.659088 
	C366.900879,188.737595 366.956238,189.470474 367.020599,190.571320 
	C367.171295,191.128479 367.312958,191.317627 367.227600,191.779053 
	C363.394897,193.039032 359.800476,193.864166 356.170471,191.054626 
	C355.891388,189.778427 355.882385,188.764618 355.946228,187.377319 
	C359.965302,183.719879 362.106812,183.785110 366.513794,187.659088 
z"/>
<path fill="#713AAF" opacity="1.000000" stroke="none" 
	d="
M367.781738,162.488144 
	C367.776154,162.582474 367.627899,162.679184 367.248169,162.905914 
	C367.140442,162.757202 367.347900,162.575409 367.781738,162.488144 
z"/>
<path fill="#713AAF" opacity="1.000000" stroke="none" 
	d="
M367.172180,191.982300 
	C367.002014,191.865860 367.003387,191.680420 367.017181,191.217163 
	C367.187225,191.034058 367.344818,191.128784 367.733948,191.373978 
	C367.781281,191.690887 367.574036,191.820511 367.172180,191.982300 
z"/>
<path fill="#713AAF" opacity="1.000000" stroke="none" 
	d="
M349.123230,191.007690 
	C349.207031,190.965881 349.365540,191.046661 349.744873,191.276764 
	C349.663940,191.445679 349.408020,191.347061 349.123230,191.007690 
z"/>
<path fill="#1E93B8" opacity="1.000000" stroke="none" 
	d="
M159.068329,144.790955 
	C158.697021,144.352997 158.699158,143.920486 158.693741,143.163712 
	C158.680695,140.033646 156.768936,137.368622 158.118591,134.031799 
	C158.392075,132.776001 158.165253,131.872650 158.641663,130.717712 
	C158.494568,128.924347 160.967300,128.266006 159.721573,126.192490 
	C159.856186,125.391258 160.099411,124.995911 160.701263,124.427399 
	C164.671677,124.795769 166.811127,129.086273 164.168442,131.833618 
	C161.790817,134.305405 161.957077,136.657303 162.257889,139.375290 
	C162.532074,141.852631 162.362045,144.016571 159.068329,144.790955 
z"/>
<path fill="#1E93B8" opacity="1.000000" stroke="none" 
	d="
M180.727631,176.389496 
	C185.023575,176.010727 187.333298,178.290939 187.704575,181.925781 
	C188.114166,185.935577 185.817688,188.379257 181.378174,188.944885 
	C180.642075,188.577759 180.294586,188.219772 179.849396,187.503326 
	C182.962234,184.403152 183.991226,181.597687 179.797989,178.317047 
	C179.768967,177.419754 180.021561,176.987000 180.727631,176.389496 
z"/>
<path fill="#1FA895" opacity="1.000000" stroke="none" 
	d="
M180.954971,186.633636 
	C180.942184,187.393066 180.968628,187.828476 181.001373,188.591019 
	C176.904068,189.188416 175.443085,186.331497 175.101181,183.145157 
	C174.719955,179.592407 176.274765,176.792435 180.640289,176.123764 
	C181.001602,176.567230 180.987396,177.005890 180.951355,177.772964 
	C180.301300,180.842575 181.223068,183.571564 180.954971,186.633636 
z"/>
<path fill="#1CABA7" opacity="1.000000" stroke="none" 
	d="
M157.257660,126.824341 
	C151.591080,127.082611 146.251511,127.023544 140.443207,126.917679 
	C139.972626,126.481888 139.970764,126.092880 139.969910,125.412125 
	C145.328796,125.075516 150.686707,125.030670 156.510010,124.958862 
	C157.515732,125.326492 157.718857,125.851517 157.257660,126.824341 
z"/>
<path fill="#1FA895" opacity="1.000000" stroke="none" 
	d="
M156.938110,127.497498 
	C156.944977,126.650711 156.959290,126.159744 156.974518,125.300339 
	C157.863510,123.842377 159.093353,124.090698 160.611755,124.142990 
	C160.953995,124.608238 160.944778,125.023262 160.920135,125.749237 
	C160.547241,127.267067 160.425385,128.533447 159.961273,130.052368 
	C159.873154,131.059769 159.804321,131.733063 159.692902,132.742081 
	C159.002808,134.004822 158.181244,134.561493 156.549988,134.036469 
	C155.620789,132.750824 155.414597,131.763748 156.511780,130.390839 
	C156.878662,129.273071 156.912125,128.563187 156.938110,127.497498 
z"/>
<path fill="#229CA3" opacity="1.000000" stroke="none" 
	d="
M176.118790,156.873352 
	C176.359833,157.507889 176.479172,157.822433 176.476624,158.135986 
	C176.466522,159.375488 176.889236,160.814194 175.462402,161.558853 
	C174.747742,161.931824 174.066437,161.251556 174.199921,160.656158 
	C174.524567,159.208008 172.328476,156.593933 176.118790,156.873352 
z"/>
<path fill="#229CA3" opacity="1.000000" stroke="none" 
	d="
M174.213104,149.249817 
	C174.218201,147.376221 173.377487,145.612106 175.202667,144.459290 
	C177.012680,148.571793 176.959015,148.863007 174.213104,149.249817 
z"/>
<path fill="#1CABA7" opacity="1.000000" stroke="none" 
	d="
M171.307281,152.166168 
	C170.970840,154.546539 170.598801,154.609909 166.583420,153.058533 
	C167.768600,151.332581 169.482315,152.217773 171.307281,152.166168 
z"/>
<path fill="#47198D" opacity="1.000000" stroke="none" 
	d="
M184.230316,206.384384 
	C180.337280,206.096558 176.706207,206.065796 173.077026,205.966064 
	C171.801697,205.931000 170.260391,206.112015 170.102722,204.200745 
	C169.922104,202.011322 171.526810,201.884720 173.054245,201.860825 
	C179.325882,201.762665 185.598282,201.710922 192.307983,201.593719 
	C197.722839,201.638107 202.701569,201.846085 207.676804,201.782349 
	C210.883850,201.741241 212.265167,203.041641 212.006042,206.230179 
	C211.898804,207.549789 212.005203,208.886215 212.002060,210.214966 
	C211.985855,217.094040 210.811935,218.398560 204.224838,216.749695 
	C199.733719,215.625473 195.133209,215.291275 190.388977,213.941071 
	C186.580734,212.994858 183.604507,213.028961 180.146210,215.299271 
	C177.652634,216.936264 173.392288,217.769562 170.222092,214.317688 
	C169.046677,209.911774 170.742325,208.535843 174.609390,208.761658 
	C177.361221,208.922363 180.134689,208.712479 183.348602,208.619995 
	C186.673401,206.707504 189.875198,207.727814 192.697174,207.513138 
	C190.132401,207.151672 187.171417,208.178513 184.230316,206.384384 
z"/>
<path fill="#1CABA7" opacity="1.000000" stroke="none" 
	d="
M169.980103,214.083984 
	C173.780167,215.402237 177.359283,215.608414 180.806839,213.529404 
	C183.719101,211.773178 186.604660,211.247742 189.847382,213.521469 
	C189.857635,214.044678 189.626724,214.291061 189.206879,214.706970 
	C186.680588,213.858963 184.382355,213.387939 182.171967,215.655014 
	C178.270401,218.572205 171.459717,218.419205 169.122330,215.385864 
	C169.229843,214.835800 169.502457,214.562195 169.980103,214.083984 
z"/>
<path fill="#461D8F" opacity="1.000000" stroke="none" 
	d="
M190.939728,135.446960 
	C191.776855,134.635391 192.549057,134.269272 193.642670,133.819305 
	C197.213867,134.212204 199.584503,135.798218 199.847794,139.266556 
	C200.115936,142.798874 197.946793,144.622543 194.336456,145.465729 
	C188.362244,143.534149 187.410599,141.623657 189.903137,136.208649 
	C190.418793,136.054611 190.874771,135.892380 190.939728,135.446960 
z"/>
<path fill="#461D8F" opacity="1.000000" stroke="none" 
	d="
M190.140869,136.102173 
	C190.042114,135.612839 190.239746,135.355484 190.772095,135.089035 
	C191.004669,135.001526 190.976868,134.973526 190.963409,134.959137 
	C191.322006,135.272263 191.412231,135.672852 190.991592,136.349152 
	C190.724289,136.561737 190.335083,136.255692 190.140869,136.102173 
z"/>
<path fill="#461D8F" opacity="1.000000" stroke="none" 
	d="
M200.281830,171.370911 
	C198.984299,170.921463 198.058136,170.343536 196.975616,169.469742 
	C196.879013,168.953583 196.938797,168.733307 197.171112,168.223480 
	C198.634613,166.870651 199.747299,165.644547 201.383698,164.090088 
	C205.548889,167.122498 204.698898,169.492310 200.281830,171.370911 
z"/>
<path fill="#461D8F" opacity="1.000000" stroke="none" 
	d="
M198.419739,163.758682 
	C198.806793,163.268768 199.145798,163.151794 199.748108,162.972992 
	C200.567657,163.099030 201.123932,163.286865 201.877228,163.694397 
	C201.926071,164.056076 201.777908,164.198074 201.407410,164.552979 
	C200.549728,165.165710 199.930542,165.623123 198.819366,165.108704 
	C198.479019,164.621307 198.425354,164.376450 198.419739,163.758682 
z"/>
<path fill="#461D8F" opacity="1.000000" stroke="none" 
	d="
M197.002197,168.982574 
	C195.709076,168.012726 195.999329,166.727676 197.094711,165.313049 
	C198.826813,165.947678 198.294571,166.910416 197.798248,168.122406 
	C197.429047,168.536148 197.307098,168.663712 197.002197,168.982574 
z"/>
<path fill="#461D8F" opacity="1.000000" stroke="none" 
	d="
M196.975128,164.968475 
	C197.328842,164.550797 197.671539,164.127716 198.241013,163.545197 
	C198.615036,163.572693 198.762283,163.759644 199.128143,164.228729 
	C199.095871,165.475479 198.492035,165.792160 197.247086,165.218414 
	C196.943466,164.947525 196.964096,164.963089 196.975128,164.968475 
z"/>
<path fill="#1FA895" opacity="1.000000" stroke="none" 
	d="
M139.129486,181.372864 
	C130.086975,183.068726 128.316086,185.071320 127.910904,194.021515 
	C127.775543,197.011459 127.785057,200.007812 127.668861,202.998932 
	C127.636101,203.842072 127.310181,204.859970 126.413116,204.930435 
	C124.988007,205.042374 125.043777,203.759476 125.044403,202.810501 
	C125.047829,197.656372 124.954842,192.471756 126.308708,187.448318 
	C127.926842,181.444366 132.732513,179.880814 138.537628,179.319427 
	C139.626999,179.783157 139.878754,180.387863 139.129486,181.372864 
z"/>
<path fill="#2588B6" opacity="1.000000" stroke="none" 
	d="
M139.265549,181.637054 
	C138.845184,180.996933 138.884933,180.435516 138.919205,179.592651 
	C144.870255,178.712173 150.464981,179.493210 155.207809,183.850296 
	C150.110809,182.348816 144.968597,181.614105 139.265549,181.637054 
z"/>
<path fill="#229CA3" opacity="1.000000" stroke="none" 
	d="
M182.033569,216.032227 
	C183.292068,216.635147 184.782822,214.997757 186.386398,216.608261 
	C184.783585,217.835266 184.058807,220.675247 182.117279,220.313782 
	C180.162262,219.949829 182.045456,217.931442 182.122650,216.292984 
	C182.084961,215.949829 182.074982,216.032028 182.033569,216.032227 
z"/>
<path fill="#1CABA7" opacity="1.000000" stroke="none" 
	d="
M160.760773,216.889435 
	C162.297577,217.073639 163.616455,214.976807 165.539062,216.641190 
	C164.118027,217.840164 163.425278,219.952942 161.434036,220.202377 
	C160.772522,220.285248 161.061798,218.501205 160.949478,217.182617 
	C160.862289,216.812469 160.779114,216.848083 160.760773,216.889435 
z"/>
<path fill="#1E93B8" opacity="1.000000" stroke="none" 
	d="
M156.496078,130.025055 
	C156.932739,130.662476 157.020248,131.342026 157.154724,132.362061 
	C156.734894,134.603378 155.574905,134.744797 153.667877,133.576035 
	C152.717728,133.061707 152.144348,132.917770 151.137360,132.676575 
	C152.066910,130.764221 154.115921,130.435196 156.496078,130.025055 
z"/>
<path fill="#2588B6" opacity="1.000000" stroke="none" 
	d="
M183.969971,206.457733 
	C189.427750,206.013702 194.908875,205.540558 200.323349,207.298874 
	C195.262451,209.419907 189.966309,208.625809 184.279114,208.649918 
	C183.856598,207.968353 183.914474,207.364685 183.969971,206.457733 
z"/>
<path fill="#461D8F" opacity="1.000000" stroke="none" 
	d="
M153.286835,133.559921 
	C154.328888,133.042358 155.366669,132.879059 156.803070,132.709152 
	C157.812790,132.815399 158.423889,132.928253 159.342651,133.059448 
	C159.430176,136.147217 160.742294,139.272156 159.001221,142.568665 
	C155.909561,140.454926 153.350235,137.938812 153.286835,133.559921 
z"/>
<path fill="#662FAA" opacity="1.000000" stroke="none" 
	d="
M301.553284,180.214432 
	C301.285431,183.609879 301.277191,186.856247 297.079071,187.132248 
	C293.646332,187.357941 292.277191,185.212662 292.053802,182.242004 
	C291.826965,179.225296 291.713135,175.913101 295.570129,174.989136 
	C299.380005,174.076416 301.080017,176.298462 301.553284,180.214432 
z"/>
<path fill="#662FAA" opacity="1.000000" stroke="none" 
	d="
M310.904541,187.546906 
	C309.433380,187.979431 308.021210,187.948380 306.185059,187.907791 
	C307.624298,183.645523 308.098907,179.359421 305.981323,174.618988 
	C307.297668,173.834717 308.703186,173.444641 310.477295,173.022949 
	C310.885071,177.688660 310.924316,182.386002 310.904541,187.546906 
z"/>
<path fill="#662FAA" opacity="1.000000" stroke="none" 
	d="
M366.901245,187.556244 
	C363.523132,187.673553 360.200684,187.342392 356.448669,187.007538 
	C355.954468,186.179184 355.734558,185.330734 355.856598,184.534683 
	C356.135345,182.716949 354.792511,180.002670 357.307495,179.332886 
	C360.125031,178.582535 363.664703,178.019394 366.007812,179.610733 
	C368.224884,181.116409 366.704529,184.540878 366.901245,187.556244 
z"/>
<path fill="#713AAF" opacity="1.000000" stroke="none" 
	d="
M378.419678,184.925415 
	C376.666199,185.040405 375.471893,185.055710 373.920074,185.088715 
	C373.502136,181.343689 373.441742,177.580963 373.476288,173.355591 
	C374.761536,172.924881 375.951843,172.956818 377.499847,172.982590 
	C381.002777,175.327377 381.429016,179.831833 378.419678,184.925415 
z"/>
<path fill="#662FAA" opacity="1.000000" stroke="none" 
	d="
M407.119019,180.204361 
	C407.929504,176.953903 408.923157,174.147018 412.703613,175.038895 
	C416.642670,175.968155 416.158447,179.330551 416.096436,182.265717 
	C416.042450,184.822006 415.011078,186.931122 412.155029,187.028275 
	C407.753815,187.177963 407.454102,183.795273 407.119019,180.204361 
z"/>
<path fill="#713AAF" opacity="1.000000" stroke="none" 
	d="
M401.052917,185.555374 
	C400.054565,186.018265 399.128998,186.021179 397.856323,186.027023 
	C394.646088,185.887924 394.754669,183.681351 394.718262,181.775742 
	C394.661102,178.787369 393.677521,175.575897 396.933044,173.028137 
	C398.437653,172.980515 399.362885,172.990875 400.635040,172.994919 
	C401.029877,177.024200 401.077759,181.059799 401.052917,185.555374 
z"/>
<path fill="#713AAF" opacity="1.000000" stroke="none" 
	d="
M335.004456,178.720795 
	C333.354431,178.439560 331.191711,179.250961 331.426666,176.959763 
	C331.629944,174.976990 333.565094,174.814453 335.252106,174.818481 
	C336.814667,174.822220 338.455414,175.199036 338.584045,176.939987 
	C338.755157,179.255966 336.655029,178.438843 335.004456,178.720795 
z"/>
<path fill="#BCBABC" opacity="1.000000" stroke="none" 
	d="
M397.369873,172.575562 
	C397.458984,177.016724 397.405518,181.063263 397.430603,185.569885 
	C397.149902,188.443848 397.890350,191.637955 393.302429,191.425995 
	C392.715607,191.428802 392.557159,191.361542 392.211121,191.116837 
	C390.742493,187.970520 389.630066,190.930298 388.779602,191.245407 
	C383.550842,193.182541 379.463013,191.223221 377.926392,185.396606 
	C377.900177,181.315155 377.939819,177.605194 377.918518,173.435822 
	C378.515564,169.572037 381.132996,171.007355 383.510101,170.941833 
	C387.908844,172.917831 385.419220,177.505142 387.763641,180.529694 
	C390.334503,178.253799 388.698608,174.463669 391.289490,172.208725 
	C393.447418,170.462067 395.408081,169.866623 397.369873,172.575562 
z"/>
<path fill="#713AAF" opacity="1.000000" stroke="none" 
	d="
M391.076813,171.878510 
	C392.034454,175.858215 391.742249,179.791138 391.165436,183.725876 
	C390.813385,186.127182 389.460541,187.155319 387.090546,187.022171 
	C384.745331,186.890411 384.013397,185.367249 383.978973,183.349533 
	C383.914276,179.553925 383.929230,175.756973 383.912537,171.496399 
	C386.178619,171.307220 388.443237,171.582214 391.076813,171.878510 
z"/>
<path fill="#713AAF" opacity="1.000000" stroke="none" 
	d="
M392.100098,191.048950 
	C392.168060,191.028549 392.312561,191.117676 392.665527,191.351425 
	C392.600372,191.468414 392.367920,191.355881 392.100098,191.048950 
z"/>
<path fill="#461D8F" opacity="1.000000" stroke="none" 
	d="
M160.280579,130.243225 
	C158.804092,128.922165 158.489670,127.524071 160.587860,126.177338 
	C162.325439,127.513931 162.843414,128.903854 160.280579,130.243225 
z"/>
<path fill="#461D8F" opacity="1.000000" stroke="none" 
	d="
M181.253540,186.865097 
	C176.113327,183.573502 176.013153,182.025223 180.646774,178.266296 
	C183.274597,178.676010 185.365479,179.705017 185.438110,182.432343 
	C185.502975,184.867966 183.839325,186.176804 181.253540,186.865097 
z"/>
<path fill="#229CA3" opacity="1.000000" stroke="none" 
	d="
M190.543274,136.835693 
	C190.895081,136.200256 191.065857,135.838760 191.093307,135.210999 
	C191.876099,136.048401 193.658859,134.485168 194.622681,136.398041 
	C193.000061,137.293396 192.758606,140.068481 190.289154,139.768921 
	C189.523956,139.676102 189.962906,138.028854 190.543274,136.835693 
z"/>
<path fill="#229CA3" opacity="1.000000" stroke="none" 
	d="
M197.142120,165.251175 
	C197.553223,164.909134 198.162964,164.870728 199.059753,164.671616 
	C199.808380,164.562042 200.270004,164.613205 200.958359,164.715118 
	C201.115036,166.812820 199.896820,167.915756 197.819412,168.470764 
	C197.480927,167.457336 197.410843,166.506073 197.142120,165.251175 
z"/>
<path fill="#1CABA7" opacity="1.000000" stroke="none" 
	d="
M181.353271,180.130463 
	C183.234314,182.608170 179.990097,182.204498 179.813431,183.646561 
	C178.714996,181.838745 178.844299,180.564377 181.353271,180.130463 
z"/>
</svg>